<mxfile host="app.diagrams.net" agent="Mozilla/5.0 (Windows NT 10.0; Win64; x64) AppleWebKit/537.36 (KHTML, like Gecko) Chrome/131.0.0.0 Safari/537.36" version="26.0.10" pages="11">
  <diagram name="Pagina-1" id="RjCPpNitbCCJrtSxVrfX">
    <mxGraphModel dx="712" dy="1179" grid="0" gridSize="10" guides="1" tooltips="1" connect="1" arrows="1" fold="1" page="0" pageScale="1" pageWidth="827" pageHeight="1169" math="0" shadow="0">
      <root>
        <mxCell id="0" />
        <mxCell id="1" parent="0" />
        <mxCell id="jPM9UCC3mbvNFBYtRNSN-3" style="edgeStyle=none;curved=1;rounded=0;orthogonalLoop=1;jettySize=auto;html=1;entryX=0.5;entryY=0;entryDx=0;entryDy=0;fontSize=12;startSize=8;endSize=8;" parent="1" source="jPM9UCC3mbvNFBYtRNSN-1" target="jPM9UCC3mbvNFBYtRNSN-2" edge="1">
          <mxGeometry relative="1" as="geometry" />
        </mxCell>
        <mxCell id="jPM9UCC3mbvNFBYtRNSN-1" value="Start" style="ellipse;whiteSpace=wrap;html=1;" parent="1" vertex="1">
          <mxGeometry x="108" y="-135" width="120" height="80" as="geometry" />
        </mxCell>
        <mxCell id="jPM9UCC3mbvNFBYtRNSN-5" style="edgeStyle=none;curved=1;rounded=0;orthogonalLoop=1;jettySize=auto;html=1;entryX=0.5;entryY=0;entryDx=0;entryDy=0;fontSize=12;startSize=8;endSize=8;" parent="1" source="jPM9UCC3mbvNFBYtRNSN-2" target="jPM9UCC3mbvNFBYtRNSN-4" edge="1">
          <mxGeometry relative="1" as="geometry" />
        </mxCell>
        <mxCell id="jPM9UCC3mbvNFBYtRNSN-2" value="Read&lt;div&gt;a, b&lt;/div&gt;" style="shape=parallelogram;perimeter=parallelogramPerimeter;whiteSpace=wrap;html=1;fixedSize=1;" parent="1" vertex="1">
          <mxGeometry x="108" y="-24" width="120" height="60" as="geometry" />
        </mxCell>
        <mxCell id="jPM9UCC3mbvNFBYtRNSN-9" style="edgeStyle=none;curved=1;rounded=0;orthogonalLoop=1;jettySize=auto;html=1;entryX=0.5;entryY=0;entryDx=0;entryDy=0;fontSize=12;startSize=8;endSize=8;" parent="1" source="jPM9UCC3mbvNFBYtRNSN-4" target="jPM9UCC3mbvNFBYtRNSN-7" edge="1">
          <mxGeometry relative="1" as="geometry" />
        </mxCell>
        <mxCell id="YJOZ_VIjY-RIDowgdlS_-3" style="edgeStyle=none;curved=1;rounded=0;orthogonalLoop=1;jettySize=auto;html=1;fontSize=12;startSize=8;endSize=8;" parent="1" source="jPM9UCC3mbvNFBYtRNSN-4" edge="1">
          <mxGeometry relative="1" as="geometry">
            <mxPoint x="272" y="96.5" as="targetPoint" />
          </mxGeometry>
        </mxCell>
        <mxCell id="jPM9UCC3mbvNFBYtRNSN-4" value="a&amp;gt;0&lt;div&gt;AND&lt;/div&gt;&lt;div&gt;b&amp;gt;0&lt;/div&gt;" style="rhombus;whiteSpace=wrap;html=1;" parent="1" vertex="1">
          <mxGeometry x="118" y="63" width="101" height="67" as="geometry" />
        </mxCell>
        <mxCell id="jPM9UCC3mbvNFBYtRNSN-10" style="edgeStyle=none;curved=1;rounded=0;orthogonalLoop=1;jettySize=auto;html=1;fontSize=12;startSize=8;endSize=8;" parent="1" source="jPM9UCC3mbvNFBYtRNSN-7" edge="1">
          <mxGeometry relative="1" as="geometry">
            <mxPoint x="72" y="224" as="targetPoint" />
          </mxGeometry>
        </mxCell>
        <mxCell id="jPM9UCC3mbvNFBYtRNSN-11" style="edgeStyle=none;curved=1;rounded=0;orthogonalLoop=1;jettySize=auto;html=1;fontSize=12;startSize=8;endSize=8;" parent="1" source="jPM9UCC3mbvNFBYtRNSN-7" edge="1">
          <mxGeometry relative="1" as="geometry">
            <mxPoint x="263" y="224" as="targetPoint" />
          </mxGeometry>
        </mxCell>
        <mxCell id="jPM9UCC3mbvNFBYtRNSN-7" value="a&amp;gt;b" style="rhombus;whiteSpace=wrap;html=1;" parent="1" vertex="1">
          <mxGeometry x="128.5" y="184" width="80" height="80" as="geometry" />
        </mxCell>
        <mxCell id="jPM9UCC3mbvNFBYtRNSN-8" value="True" style="text;html=1;align=center;verticalAlign=middle;whiteSpace=wrap;rounded=0;" parent="1" vertex="1">
          <mxGeometry x="123" y="142" width="60" height="30" as="geometry" />
        </mxCell>
        <mxCell id="jPM9UCC3mbvNFBYtRNSN-12" value="True" style="text;html=1;align=center;verticalAlign=middle;whiteSpace=wrap;rounded=0;" parent="1" vertex="1">
          <mxGeometry x="74" y="198" width="70" height="34" as="geometry" />
        </mxCell>
        <mxCell id="jPM9UCC3mbvNFBYtRNSN-13" value="False" style="text;html=1;align=center;verticalAlign=middle;whiteSpace=wrap;rounded=0;" parent="1" vertex="1">
          <mxGeometry x="208.5" y="204" width="39" height="18" as="geometry" />
        </mxCell>
        <mxCell id="jPM9UCC3mbvNFBYtRNSN-15" style="edgeStyle=none;curved=1;rounded=0;orthogonalLoop=1;jettySize=auto;html=1;entryX=0.5;entryY=0;entryDx=0;entryDy=0;fontSize=12;startSize=8;endSize=8;" parent="1" edge="1">
          <mxGeometry relative="1" as="geometry">
            <mxPoint x="73" y="225" as="sourcePoint" />
            <mxPoint x="73" y="279" as="targetPoint" />
          </mxGeometry>
        </mxCell>
        <mxCell id="jPM9UCC3mbvNFBYtRNSN-16" style="edgeStyle=none;curved=1;rounded=0;orthogonalLoop=1;jettySize=auto;html=1;exitX=0;exitY=0;exitDx=0;exitDy=0;fontSize=12;startSize=8;endSize=8;" parent="1" source="jPM9UCC3mbvNFBYtRNSN-13" target="jPM9UCC3mbvNFBYtRNSN-13" edge="1">
          <mxGeometry relative="1" as="geometry" />
        </mxCell>
        <mxCell id="jPM9UCC3mbvNFBYtRNSN-17" style="edgeStyle=none;curved=1;rounded=0;orthogonalLoop=1;jettySize=auto;html=1;entryX=0.5;entryY=0;entryDx=0;entryDy=0;fontSize=12;startSize=8;endSize=8;" parent="1" edge="1">
          <mxGeometry relative="1" as="geometry">
            <mxPoint x="263" y="227" as="sourcePoint" />
            <mxPoint x="263" y="281" as="targetPoint" />
          </mxGeometry>
        </mxCell>
        <mxCell id="jPM9UCC3mbvNFBYtRNSN-18" value="c=√(a²)&amp;nbsp; -&amp;nbsp; (b²)" style="rounded=0;whiteSpace=wrap;html=1;" parent="1" vertex="1">
          <mxGeometry x="21.5" y="280" width="107" height="40" as="geometry" />
        </mxCell>
        <mxCell id="YJOZ_VIjY-RIDowgdlS_-2" value="" style="endArrow=none;html=1;rounded=0;fontSize=12;startSize=8;endSize=8;curved=1;" parent="1" edge="1">
          <mxGeometry width="50" height="50" relative="1" as="geometry">
            <mxPoint x="58" y="292" as="sourcePoint" />
            <mxPoint x="115" y="292" as="targetPoint" />
          </mxGeometry>
        </mxCell>
        <mxCell id="YJOZ_VIjY-RIDowgdlS_-4" value="" style="endArrow=classic;html=1;rounded=0;fontSize=12;startSize=8;endSize=8;curved=1;" parent="1" edge="1">
          <mxGeometry width="50" height="50" relative="1" as="geometry">
            <mxPoint x="271" y="96" as="sourcePoint" />
            <mxPoint x="269" y="6" as="targetPoint" />
          </mxGeometry>
        </mxCell>
        <mxCell id="YJOZ_VIjY-RIDowgdlS_-5" value="" style="endArrow=classic;html=1;rounded=0;fontSize=12;startSize=8;endSize=8;curved=1;" parent="1" edge="1">
          <mxGeometry width="50" height="50" relative="1" as="geometry">
            <mxPoint x="268" y="3" as="sourcePoint" />
            <mxPoint x="219" y="3" as="targetPoint" />
          </mxGeometry>
        </mxCell>
        <mxCell id="YJOZ_VIjY-RIDowgdlS_-6" value="False" style="text;html=1;align=center;verticalAlign=middle;whiteSpace=wrap;rounded=0;" parent="1" vertex="1">
          <mxGeometry x="211" y="73" width="60" height="30" as="geometry" />
        </mxCell>
        <mxCell id="YJOZ_VIjY-RIDowgdlS_-7" style="edgeStyle=none;curved=1;rounded=0;orthogonalLoop=1;jettySize=auto;html=1;exitX=0;exitY=1;exitDx=0;exitDy=0;fontSize=12;startSize=8;endSize=8;" parent="1" source="jPM9UCC3mbvNFBYtRNSN-18" target="jPM9UCC3mbvNFBYtRNSN-18" edge="1">
          <mxGeometry relative="1" as="geometry" />
        </mxCell>
        <mxCell id="YJOZ_VIjY-RIDowgdlS_-13" style="edgeStyle=none;curved=1;rounded=0;orthogonalLoop=1;jettySize=auto;html=1;fontSize=12;startSize=8;endSize=8;" parent="1" source="YJOZ_VIjY-RIDowgdlS_-10" edge="1">
          <mxGeometry relative="1" as="geometry">
            <mxPoint x="69" y="448" as="targetPoint" />
          </mxGeometry>
        </mxCell>
        <mxCell id="YJOZ_VIjY-RIDowgdlS_-10" value="Write c" style="shape=parallelogram;perimeter=parallelogramPerimeter;whiteSpace=wrap;html=1;fixedSize=1;" parent="1" vertex="1">
          <mxGeometry x="9.5" y="360" width="119" height="34" as="geometry" />
        </mxCell>
        <mxCell id="YJOZ_VIjY-RIDowgdlS_-14" style="edgeStyle=none;curved=1;rounded=0;orthogonalLoop=1;jettySize=auto;html=1;fontSize=12;startSize=8;endSize=8;" parent="1" source="YJOZ_VIjY-RIDowgdlS_-11" edge="1">
          <mxGeometry relative="1" as="geometry">
            <mxPoint x="263" y="452" as="targetPoint" />
          </mxGeometry>
        </mxCell>
        <mxCell id="YJOZ_VIjY-RIDowgdlS_-11" value="Write &quot;Error&quot;" style="shape=parallelogram;perimeter=parallelogramPerimeter;whiteSpace=wrap;html=1;fixedSize=1;" parent="1" vertex="1">
          <mxGeometry x="204" y="282" width="118" height="38" as="geometry" />
        </mxCell>
        <mxCell id="YJOZ_VIjY-RIDowgdlS_-12" style="edgeStyle=none;curved=1;rounded=0;orthogonalLoop=1;jettySize=auto;html=1;exitX=0.5;exitY=1;exitDx=0;exitDy=0;entryX=0.563;entryY=0.029;entryDx=0;entryDy=0;entryPerimeter=0;fontSize=12;startSize=8;endSize=8;" parent="1" source="jPM9UCC3mbvNFBYtRNSN-18" target="YJOZ_VIjY-RIDowgdlS_-10" edge="1">
          <mxGeometry relative="1" as="geometry" />
        </mxCell>
        <mxCell id="YJOZ_VIjY-RIDowgdlS_-16" value="" style="endArrow=classic;html=1;rounded=0;fontSize=12;startSize=8;endSize=8;curved=1;" parent="1" edge="1">
          <mxGeometry width="50" height="50" relative="1" as="geometry">
            <mxPoint x="68" y="449" as="sourcePoint" />
            <mxPoint x="140" y="449" as="targetPoint" />
          </mxGeometry>
        </mxCell>
        <mxCell id="YJOZ_VIjY-RIDowgdlS_-18" value="" style="endArrow=classic;html=1;rounded=0;fontSize=12;startSize=8;endSize=8;curved=1;" parent="1" edge="1">
          <mxGeometry width="50" height="50" relative="1" as="geometry">
            <mxPoint x="262" y="451" as="sourcePoint" />
            <mxPoint x="180" y="451" as="targetPoint" />
          </mxGeometry>
        </mxCell>
        <mxCell id="YJOZ_VIjY-RIDowgdlS_-21" style="edgeStyle=none;curved=1;rounded=0;orthogonalLoop=1;jettySize=auto;html=1;fontSize=12;startSize=8;endSize=8;" parent="1" source="YJOZ_VIjY-RIDowgdlS_-20" edge="1">
          <mxGeometry relative="1" as="geometry">
            <mxPoint x="162" y="495" as="targetPoint" />
          </mxGeometry>
        </mxCell>
        <mxCell id="YJOZ_VIjY-RIDowgdlS_-20" value="" style="ellipse;whiteSpace=wrap;html=1;aspect=fixed;" parent="1" vertex="1">
          <mxGeometry x="146" y="435" width="32" height="32" as="geometry" />
        </mxCell>
        <mxCell id="YJOZ_VIjY-RIDowgdlS_-22" value="End" style="ellipse;whiteSpace=wrap;html=1;" parent="1" vertex="1">
          <mxGeometry x="102" y="497" width="120" height="80" as="geometry" />
        </mxCell>
        <mxCell id="YNc7IaeJTm_Y66AycsaM-1" value="i" style="text;html=1;align=center;verticalAlign=middle;resizable=0;points=[];autosize=1;strokeColor=none;fillColor=none;" vertex="1" parent="1">
          <mxGeometry x="233" y="-46" width="21" height="26" as="geometry" />
        </mxCell>
        <mxCell id="YNc7IaeJTm_Y66AycsaM-2" value="o" style="text;html=1;align=center;verticalAlign=middle;resizable=0;points=[];autosize=1;strokeColor=none;fillColor=none;" vertex="1" parent="1">
          <mxGeometry x="317" y="273" width="25" height="26" as="geometry" />
        </mxCell>
        <mxCell id="YNc7IaeJTm_Y66AycsaM-3" value="o" style="text;html=1;align=center;verticalAlign=middle;resizable=0;points=[];autosize=1;strokeColor=none;fillColor=none;" vertex="1" parent="1">
          <mxGeometry x="10" y="344" width="25" height="26" as="geometry" />
        </mxCell>
      </root>
    </mxGraphModel>
  </diagram>
  <diagram id="HZX1RqyPArQngybEKedP" name="Pagina-2">
    <mxGraphModel dx="712" dy="1179" grid="0" gridSize="10" guides="1" tooltips="1" connect="1" arrows="1" fold="1" page="0" pageScale="1" pageWidth="827" pageHeight="1169" math="0" shadow="0">
      <root>
        <mxCell id="0" />
        <mxCell id="1" parent="0" />
        <mxCell id="eCEbN7SvO_l61YJsOTmQ-10" style="edgeStyle=none;curved=1;rounded=0;orthogonalLoop=1;jettySize=auto;html=1;exitX=0.5;exitY=1;exitDx=0;exitDy=0;entryX=0.5;entryY=0;entryDx=0;entryDy=0;fontSize=12;startSize=8;endSize=8;" parent="1" source="eCEbN7SvO_l61YJsOTmQ-1" target="eCEbN7SvO_l61YJsOTmQ-5" edge="1">
          <mxGeometry relative="1" as="geometry" />
        </mxCell>
        <mxCell id="eCEbN7SvO_l61YJsOTmQ-1" value="start" style="ellipse;whiteSpace=wrap;html=1;" parent="1" vertex="1">
          <mxGeometry x="139" y="-218" width="99" height="56" as="geometry" />
        </mxCell>
        <mxCell id="eCEbN7SvO_l61YJsOTmQ-22" style="edgeStyle=none;curved=1;rounded=0;orthogonalLoop=1;jettySize=auto;html=1;exitX=0.5;exitY=1;exitDx=0;exitDy=0;fontSize=12;startSize=8;endSize=8;" parent="1" source="eCEbN7SvO_l61YJsOTmQ-4" edge="1">
          <mxGeometry relative="1" as="geometry">
            <mxPoint x="183" y="-36" as="targetPoint" />
          </mxGeometry>
        </mxCell>
        <mxCell id="eCEbN7SvO_l61YJsOTmQ-4" value="Read max" style="shape=parallelogram;perimeter=parallelogramPerimeter;whiteSpace=wrap;html=1;fixedSize=1;" parent="1" vertex="1">
          <mxGeometry x="137" y="-93" width="89" height="30" as="geometry" />
        </mxCell>
        <mxCell id="eCEbN7SvO_l61YJsOTmQ-8" style="edgeStyle=none;curved=1;rounded=0;orthogonalLoop=1;jettySize=auto;html=1;exitX=0.5;exitY=1;exitDx=0;exitDy=0;fontSize=12;startSize=8;endSize=8;" parent="1" source="eCEbN7SvO_l61YJsOTmQ-5" edge="1">
          <mxGeometry relative="1" as="geometry">
            <mxPoint x="186" y="-99" as="targetPoint" />
          </mxGeometry>
        </mxCell>
        <mxCell id="eCEbN7SvO_l61YJsOTmQ-5" value="c=0" style="whiteSpace=wrap;html=1;" parent="1" vertex="1">
          <mxGeometry x="148.5" y="-142" width="75" height="25" as="geometry" />
        </mxCell>
        <mxCell id="eCEbN7SvO_l61YJsOTmQ-14" style="edgeStyle=none;curved=1;rounded=0;orthogonalLoop=1;jettySize=auto;html=1;exitX=0.5;exitY=1;exitDx=0;exitDy=0;fontSize=12;startSize=8;endSize=8;" parent="1" source="eCEbN7SvO_l61YJsOTmQ-13" target="eCEbN7SvO_l61YJsOTmQ-15" edge="1">
          <mxGeometry relative="1" as="geometry">
            <mxPoint x="182" y="83" as="targetPoint" />
          </mxGeometry>
        </mxCell>
        <mxCell id="eCEbN7SvO_l61YJsOTmQ-40" style="edgeStyle=none;curved=1;rounded=0;orthogonalLoop=1;jettySize=auto;html=1;fontSize=12;startSize=8;endSize=8;" parent="1" source="eCEbN7SvO_l61YJsOTmQ-13" edge="1">
          <mxGeometry relative="1" as="geometry">
            <mxPoint x="319" y="6" as="targetPoint" />
          </mxGeometry>
        </mxCell>
        <mxCell id="eCEbN7SvO_l61YJsOTmQ-13" value="c&amp;lt;4" style="rhombus;whiteSpace=wrap;html=1;" parent="1" vertex="1">
          <mxGeometry x="143.5" y="-34" width="80" height="80" as="geometry" />
        </mxCell>
        <mxCell id="eCEbN7SvO_l61YJsOTmQ-16" style="edgeStyle=none;curved=1;rounded=0;orthogonalLoop=1;jettySize=auto;html=1;fontSize=12;startSize=8;endSize=8;" parent="1" source="eCEbN7SvO_l61YJsOTmQ-15" edge="1">
          <mxGeometry relative="1" as="geometry">
            <mxPoint x="182" y="354" as="targetPoint" />
          </mxGeometry>
        </mxCell>
        <mxCell id="eCEbN7SvO_l61YJsOTmQ-17" style="edgeStyle=none;curved=1;rounded=0;orthogonalLoop=1;jettySize=auto;html=1;exitX=1;exitY=0.5;exitDx=0;exitDy=0;fontSize=12;startSize=8;endSize=8;" parent="1" source="eCEbN7SvO_l61YJsOTmQ-15" edge="1">
          <mxGeometry relative="1" as="geometry">
            <mxPoint x="295" y="187" as="targetPoint" />
          </mxGeometry>
        </mxCell>
        <mxCell id="eCEbN7SvO_l61YJsOTmQ-15" value="n&amp;gt;max" style="rhombus;whiteSpace=wrap;html=1;" parent="1" vertex="1">
          <mxGeometry x="141.5" y="147" width="80" height="80" as="geometry" />
        </mxCell>
        <mxCell id="eCEbN7SvO_l61YJsOTmQ-18" value="True" style="text;html=1;align=center;verticalAlign=middle;resizable=0;points=[];autosize=1;strokeColor=none;fillColor=none;fontSize=16;" parent="1" vertex="1">
          <mxGeometry x="176" y="37" width="50" height="31" as="geometry" />
        </mxCell>
        <mxCell id="eCEbN7SvO_l61YJsOTmQ-24" style="edgeStyle=none;curved=1;rounded=0;orthogonalLoop=1;jettySize=auto;html=1;entryX=0.5;entryY=1;entryDx=0;entryDy=0;fontSize=12;startSize=8;endSize=8;" parent="1" source="eCEbN7SvO_l61YJsOTmQ-4" target="eCEbN7SvO_l61YJsOTmQ-4" edge="1">
          <mxGeometry relative="1" as="geometry" />
        </mxCell>
        <mxCell id="eCEbN7SvO_l61YJsOTmQ-25" value="read n" style="shape=parallelogram;perimeter=parallelogramPerimeter;whiteSpace=wrap;html=1;fixedSize=1;" parent="1" vertex="1">
          <mxGeometry x="123" y="76" width="108" height="30" as="geometry" />
        </mxCell>
        <mxCell id="eCEbN7SvO_l61YJsOTmQ-26" value="true" style="text;html=1;align=center;verticalAlign=middle;resizable=0;points=[];autosize=1;strokeColor=none;fillColor=none;fontSize=16;" parent="1" vertex="1">
          <mxGeometry x="217" y="157" width="46" height="31" as="geometry" />
        </mxCell>
        <mxCell id="eCEbN7SvO_l61YJsOTmQ-27" value="" style="endArrow=classic;html=1;rounded=0;fontSize=12;startSize=8;endSize=8;curved=1;" parent="1" edge="1">
          <mxGeometry width="50" height="50" relative="1" as="geometry">
            <mxPoint x="296" y="188" as="sourcePoint" />
            <mxPoint x="299" y="262" as="targetPoint" />
          </mxGeometry>
        </mxCell>
        <mxCell id="eCEbN7SvO_l61YJsOTmQ-30" style="edgeStyle=none;curved=1;rounded=0;orthogonalLoop=1;jettySize=auto;html=1;fontSize=12;startSize=8;endSize=8;" parent="1" source="eCEbN7SvO_l61YJsOTmQ-29" edge="1">
          <mxGeometry relative="1" as="geometry">
            <mxPoint x="302" y="355" as="targetPoint" />
          </mxGeometry>
        </mxCell>
        <mxCell id="eCEbN7SvO_l61YJsOTmQ-29" value="max= n" style="rounded=0;whiteSpace=wrap;html=1;" parent="1" vertex="1">
          <mxGeometry x="263" y="263" width="78" height="29" as="geometry" />
        </mxCell>
        <mxCell id="eCEbN7SvO_l61YJsOTmQ-31" value="" style="endArrow=classic;html=1;rounded=0;fontSize=12;startSize=8;endSize=8;curved=1;" parent="1" edge="1">
          <mxGeometry width="50" height="50" relative="1" as="geometry">
            <mxPoint x="300" y="357" as="sourcePoint" />
            <mxPoint x="187" y="357" as="targetPoint" />
          </mxGeometry>
        </mxCell>
        <mxCell id="eCEbN7SvO_l61YJsOTmQ-34" style="edgeStyle=none;curved=1;rounded=0;orthogonalLoop=1;jettySize=auto;html=1;exitX=0.5;exitY=1;exitDx=0;exitDy=0;fontSize=12;startSize=8;endSize=8;" parent="1" source="eCEbN7SvO_l61YJsOTmQ-32" edge="1">
          <mxGeometry relative="1" as="geometry">
            <mxPoint x="182" y="410" as="targetPoint" />
          </mxGeometry>
        </mxCell>
        <mxCell id="eCEbN7SvO_l61YJsOTmQ-32" value="" style="ellipse;whiteSpace=wrap;html=1;aspect=fixed;" parent="1" vertex="1">
          <mxGeometry x="174" y="355" width="15" height="15" as="geometry" />
        </mxCell>
        <mxCell id="eCEbN7SvO_l61YJsOTmQ-33" value="false" style="text;html=1;align=center;verticalAlign=middle;resizable=0;points=[];autosize=1;strokeColor=none;fillColor=none;fontSize=16;" parent="1" vertex="1">
          <mxGeometry x="139" y="227" width="52" height="31" as="geometry" />
        </mxCell>
        <mxCell id="eCEbN7SvO_l61YJsOTmQ-35" value="" style="endArrow=classic;html=1;rounded=0;fontSize=12;startSize=8;endSize=8;curved=1;" parent="1" edge="1">
          <mxGeometry width="50" height="50" relative="1" as="geometry">
            <mxPoint x="179" y="411" as="sourcePoint" />
            <mxPoint x="55" y="411" as="targetPoint" />
          </mxGeometry>
        </mxCell>
        <mxCell id="eCEbN7SvO_l61YJsOTmQ-36" value="" style="endArrow=classic;html=1;rounded=0;fontSize=12;startSize=8;endSize=8;curved=1;" parent="1" edge="1">
          <mxGeometry width="50" height="50" relative="1" as="geometry">
            <mxPoint x="55" y="403" as="sourcePoint" />
            <mxPoint x="52" y="11" as="targetPoint" />
          </mxGeometry>
        </mxCell>
        <mxCell id="eCEbN7SvO_l61YJsOTmQ-38" value="c=c+1" style="rounded=0;whiteSpace=wrap;html=1;" parent="1" vertex="1">
          <mxGeometry x="80" y="398" width="85" height="31" as="geometry" />
        </mxCell>
        <mxCell id="eCEbN7SvO_l61YJsOTmQ-39" value="" style="endArrow=classic;html=1;rounded=0;fontSize=12;startSize=8;endSize=8;curved=1;" parent="1" edge="1">
          <mxGeometry width="50" height="50" relative="1" as="geometry">
            <mxPoint x="56" y="10" as="sourcePoint" />
            <mxPoint x="143.5" y="4" as="targetPoint" />
          </mxGeometry>
        </mxCell>
        <mxCell id="eCEbN7SvO_l61YJsOTmQ-41" value="false" style="text;html=1;align=center;verticalAlign=middle;resizable=0;points=[];autosize=1;strokeColor=none;fillColor=none;fontSize=16;" parent="1" vertex="1">
          <mxGeometry x="226" y="-21" width="52" height="31" as="geometry" />
        </mxCell>
        <mxCell id="eCEbN7SvO_l61YJsOTmQ-43" style="edgeStyle=none;curved=1;rounded=0;orthogonalLoop=1;jettySize=auto;html=1;exitX=1;exitY=0.5;exitDx=0;exitDy=0;fontSize=12;startSize=8;endSize=8;" parent="1" source="eCEbN7SvO_l61YJsOTmQ-42" target="eCEbN7SvO_l61YJsOTmQ-44" edge="1">
          <mxGeometry relative="1" as="geometry">
            <mxPoint x="447" y="6" as="targetPoint" />
          </mxGeometry>
        </mxCell>
        <mxCell id="eCEbN7SvO_l61YJsOTmQ-42" value="write max" style="shape=parallelogram;perimeter=parallelogramPerimeter;whiteSpace=wrap;html=1;fixedSize=1;" parent="1" vertex="1">
          <mxGeometry x="310" y="-7" width="93" height="26" as="geometry" />
        </mxCell>
        <mxCell id="eCEbN7SvO_l61YJsOTmQ-44" value="end" style="ellipse;whiteSpace=wrap;html=1;" parent="1" vertex="1">
          <mxGeometry x="484" y="-10" width="62" height="32" as="geometry" />
        </mxCell>
        <mxCell id="AiLBbx_FuiedCF2sZrLO-1" value="i" style="text;html=1;align=center;verticalAlign=middle;resizable=0;points=[];autosize=1;strokeColor=none;fillColor=none;" vertex="1" parent="1">
          <mxGeometry x="219" y="-105" width="21" height="26" as="geometry" />
        </mxCell>
        <mxCell id="AiLBbx_FuiedCF2sZrLO-2" value="o" style="text;html=1;align=center;verticalAlign=middle;resizable=0;points=[];autosize=1;strokeColor=none;fillColor=none;" vertex="1" parent="1">
          <mxGeometry x="395" y="-21" width="25" height="26" as="geometry" />
        </mxCell>
        <mxCell id="AiLBbx_FuiedCF2sZrLO-3" value="i" style="text;html=1;align=center;verticalAlign=middle;resizable=0;points=[];autosize=1;strokeColor=none;fillColor=none;" vertex="1" parent="1">
          <mxGeometry x="228" y="61" width="21" height="26" as="geometry" />
        </mxCell>
      </root>
    </mxGraphModel>
  </diagram>
  <diagram id="FNaPGMdPVNSU_wyBPHS8" name="Pagina-3">
    <mxGraphModel dx="712" dy="779" grid="1" gridSize="10" guides="1" tooltips="1" connect="1" arrows="1" fold="1" page="1" pageScale="1" pageWidth="827" pageHeight="1169" math="0" shadow="0">
      <root>
        <mxCell id="0" />
        <mxCell id="1" parent="0" />
        <mxCell id="MFuc4uuLCi1EUsn1ANaO-2" style="edgeStyle=orthogonalEdgeStyle;rounded=0;orthogonalLoop=1;jettySize=auto;html=1;" edge="1" parent="1" source="MFuc4uuLCi1EUsn1ANaO-1" target="MFuc4uuLCi1EUsn1ANaO-3">
          <mxGeometry relative="1" as="geometry">
            <mxPoint x="422" y="90" as="targetPoint" />
          </mxGeometry>
        </mxCell>
        <mxCell id="MFuc4uuLCi1EUsn1ANaO-1" value="start" style="ellipse;whiteSpace=wrap;html=1;" vertex="1" parent="1">
          <mxGeometry x="370" y="10" width="104" height="50" as="geometry" />
        </mxCell>
        <mxCell id="MFuc4uuLCi1EUsn1ANaO-4" style="edgeStyle=orthogonalEdgeStyle;rounded=0;orthogonalLoop=1;jettySize=auto;html=1;" edge="1" parent="1" source="MFuc4uuLCi1EUsn1ANaO-3" target="MFuc4uuLCi1EUsn1ANaO-5">
          <mxGeometry relative="1" as="geometry">
            <mxPoint x="422" y="160" as="targetPoint" />
          </mxGeometry>
        </mxCell>
        <mxCell id="MFuc4uuLCi1EUsn1ANaO-3" value="sum=0" style="rounded=0;whiteSpace=wrap;html=1;" vertex="1" parent="1">
          <mxGeometry x="376" y="90" width="92" height="30" as="geometry" />
        </mxCell>
        <mxCell id="MFuc4uuLCi1EUsn1ANaO-6" style="edgeStyle=orthogonalEdgeStyle;rounded=0;orthogonalLoop=1;jettySize=auto;html=1;" edge="1" parent="1" source="MFuc4uuLCi1EUsn1ANaO-5">
          <mxGeometry relative="1" as="geometry">
            <mxPoint x="422" y="230" as="targetPoint" />
          </mxGeometry>
        </mxCell>
        <mxCell id="MFuc4uuLCi1EUsn1ANaO-5" value="c=0" style="rounded=0;whiteSpace=wrap;html=1;" vertex="1" parent="1">
          <mxGeometry x="376" y="140" width="92" height="30" as="geometry" />
        </mxCell>
        <mxCell id="MFuc4uuLCi1EUsn1ANaO-9" style="edgeStyle=orthogonalEdgeStyle;rounded=0;orthogonalLoop=1;jettySize=auto;html=1;" edge="1" parent="1" source="MFuc4uuLCi1EUsn1ANaO-7" target="MFuc4uuLCi1EUsn1ANaO-10">
          <mxGeometry relative="1" as="geometry">
            <mxPoint x="422" y="380" as="targetPoint" />
          </mxGeometry>
        </mxCell>
        <mxCell id="MFuc4uuLCi1EUsn1ANaO-30" style="edgeStyle=orthogonalEdgeStyle;rounded=0;orthogonalLoop=1;jettySize=auto;html=1;exitX=1;exitY=0.5;exitDx=0;exitDy=0;" edge="1" parent="1" source="MFuc4uuLCi1EUsn1ANaO-7">
          <mxGeometry relative="1" as="geometry">
            <mxPoint x="560" y="270" as="targetPoint" />
          </mxGeometry>
        </mxCell>
        <mxCell id="MFuc4uuLCi1EUsn1ANaO-7" value="c&amp;lt;5" style="rhombus;whiteSpace=wrap;html=1;" vertex="1" parent="1">
          <mxGeometry x="382" y="230" width="80" height="80" as="geometry" />
        </mxCell>
        <mxCell id="MFuc4uuLCi1EUsn1ANaO-11" style="edgeStyle=orthogonalEdgeStyle;rounded=0;orthogonalLoop=1;jettySize=auto;html=1;" edge="1" parent="1" source="MFuc4uuLCi1EUsn1ANaO-10" target="MFuc4uuLCi1EUsn1ANaO-12">
          <mxGeometry relative="1" as="geometry">
            <mxPoint x="422" y="410" as="targetPoint" />
          </mxGeometry>
        </mxCell>
        <mxCell id="MFuc4uuLCi1EUsn1ANaO-10" value="read n" style="shape=parallelogram;perimeter=parallelogramPerimeter;whiteSpace=wrap;html=1;fixedSize=1;" vertex="1" parent="1">
          <mxGeometry x="366" y="340" width="112" height="30" as="geometry" />
        </mxCell>
        <mxCell id="MFuc4uuLCi1EUsn1ANaO-13" style="edgeStyle=orthogonalEdgeStyle;rounded=0;orthogonalLoop=1;jettySize=auto;html=1;" edge="1" parent="1" source="MFuc4uuLCi1EUsn1ANaO-12">
          <mxGeometry relative="1" as="geometry">
            <mxPoint x="540" y="440" as="targetPoint" />
          </mxGeometry>
        </mxCell>
        <mxCell id="MFuc4uuLCi1EUsn1ANaO-14" style="edgeStyle=orthogonalEdgeStyle;rounded=0;orthogonalLoop=1;jettySize=auto;html=1;" edge="1" parent="1" source="MFuc4uuLCi1EUsn1ANaO-12">
          <mxGeometry relative="1" as="geometry">
            <mxPoint x="422" y="560" as="targetPoint" />
          </mxGeometry>
        </mxCell>
        <mxCell id="MFuc4uuLCi1EUsn1ANaO-12" value="n&amp;gt;0" style="rhombus;whiteSpace=wrap;html=1;" vertex="1" parent="1">
          <mxGeometry x="382" y="400" width="80" height="80" as="geometry" />
        </mxCell>
        <mxCell id="MFuc4uuLCi1EUsn1ANaO-15" value="" style="endArrow=classic;html=1;rounded=0;" edge="1" parent="1" target="MFuc4uuLCi1EUsn1ANaO-16">
          <mxGeometry width="50" height="50" relative="1" as="geometry">
            <mxPoint x="540" y="440" as="sourcePoint" />
            <mxPoint x="542" y="520" as="targetPoint" />
          </mxGeometry>
        </mxCell>
        <mxCell id="MFuc4uuLCi1EUsn1ANaO-17" style="edgeStyle=orthogonalEdgeStyle;rounded=0;orthogonalLoop=1;jettySize=auto;html=1;" edge="1" parent="1" source="MFuc4uuLCi1EUsn1ANaO-16">
          <mxGeometry relative="1" as="geometry">
            <mxPoint x="541" y="560" as="targetPoint" />
          </mxGeometry>
        </mxCell>
        <mxCell id="MFuc4uuLCi1EUsn1ANaO-16" value="sum=sum+n" style="rounded=0;whiteSpace=wrap;html=1;" vertex="1" parent="1">
          <mxGeometry x="480" y="490" width="122" height="30" as="geometry" />
        </mxCell>
        <mxCell id="MFuc4uuLCi1EUsn1ANaO-18" value="" style="endArrow=classic;html=1;rounded=0;" edge="1" parent="1">
          <mxGeometry width="50" height="50" relative="1" as="geometry">
            <mxPoint x="540" y="560" as="sourcePoint" />
            <mxPoint x="498" y="559.5" as="targetPoint" />
          </mxGeometry>
        </mxCell>
        <mxCell id="MFuc4uuLCi1EUsn1ANaO-19" value="" style="endArrow=classic;html=1;rounded=0;" edge="1" parent="1" source="MFuc4uuLCi1EUsn1ANaO-20">
          <mxGeometry width="50" height="50" relative="1" as="geometry">
            <mxPoint x="420" y="560" as="sourcePoint" />
            <mxPoint x="486" y="560" as="targetPoint" />
          </mxGeometry>
        </mxCell>
        <mxCell id="MFuc4uuLCi1EUsn1ANaO-21" value="" style="endArrow=classic;html=1;rounded=0;" edge="1" parent="1" target="MFuc4uuLCi1EUsn1ANaO-20">
          <mxGeometry width="50" height="50" relative="1" as="geometry">
            <mxPoint x="420" y="560" as="sourcePoint" />
            <mxPoint x="486" y="560" as="targetPoint" />
          </mxGeometry>
        </mxCell>
        <mxCell id="MFuc4uuLCi1EUsn1ANaO-22" style="edgeStyle=orthogonalEdgeStyle;rounded=0;orthogonalLoop=1;jettySize=auto;html=1;exitX=0.5;exitY=1;exitDx=0;exitDy=0;" edge="1" parent="1" source="MFuc4uuLCi1EUsn1ANaO-20">
          <mxGeometry relative="1" as="geometry">
            <mxPoint x="488" y="610" as="targetPoint" />
          </mxGeometry>
        </mxCell>
        <mxCell id="MFuc4uuLCi1EUsn1ANaO-20" value="" style="ellipse;whiteSpace=wrap;html=1;aspect=fixed;" vertex="1" parent="1">
          <mxGeometry x="478" y="550" width="20" height="20" as="geometry" />
        </mxCell>
        <mxCell id="MFuc4uuLCi1EUsn1ANaO-27" style="edgeStyle=orthogonalEdgeStyle;rounded=0;orthogonalLoop=1;jettySize=auto;html=1;" edge="1" parent="1" source="MFuc4uuLCi1EUsn1ANaO-23">
          <mxGeometry relative="1" as="geometry">
            <mxPoint x="280" y="625" as="targetPoint" />
          </mxGeometry>
        </mxCell>
        <mxCell id="MFuc4uuLCi1EUsn1ANaO-23" value="c+=1" style="rounded=0;whiteSpace=wrap;html=1;" vertex="1" parent="1">
          <mxGeometry x="430" y="610" width="118" height="30" as="geometry" />
        </mxCell>
        <mxCell id="MFuc4uuLCi1EUsn1ANaO-24" value="true" style="text;html=1;align=center;verticalAlign=middle;resizable=0;points=[];autosize=1;strokeColor=none;fillColor=none;" vertex="1" parent="1">
          <mxGeometry x="460" y="408" width="40" height="30" as="geometry" />
        </mxCell>
        <mxCell id="MFuc4uuLCi1EUsn1ANaO-25" value="false" style="text;html=1;align=center;verticalAlign=middle;resizable=0;points=[];autosize=1;strokeColor=none;fillColor=none;" vertex="1" parent="1">
          <mxGeometry x="375" y="468" width="50" height="30" as="geometry" />
        </mxCell>
        <mxCell id="MFuc4uuLCi1EUsn1ANaO-26" value="true" style="text;html=1;align=center;verticalAlign=middle;resizable=0;points=[];autosize=1;strokeColor=none;fillColor=none;" vertex="1" parent="1">
          <mxGeometry x="414" y="300" width="40" height="30" as="geometry" />
        </mxCell>
        <mxCell id="MFuc4uuLCi1EUsn1ANaO-28" value="" style="endArrow=classic;html=1;rounded=0;" edge="1" parent="1">
          <mxGeometry width="50" height="50" relative="1" as="geometry">
            <mxPoint x="280" y="620" as="sourcePoint" />
            <mxPoint x="280" y="270" as="targetPoint" />
          </mxGeometry>
        </mxCell>
        <mxCell id="MFuc4uuLCi1EUsn1ANaO-29" value="" style="endArrow=classic;html=1;rounded=0;" edge="1" parent="1">
          <mxGeometry width="50" height="50" relative="1" as="geometry">
            <mxPoint x="280" y="270" as="sourcePoint" />
            <mxPoint x="380" y="270" as="targetPoint" />
          </mxGeometry>
        </mxCell>
        <mxCell id="MFuc4uuLCi1EUsn1ANaO-31" value="false" style="text;html=1;align=center;verticalAlign=middle;resizable=0;points=[];autosize=1;strokeColor=none;fillColor=none;" vertex="1" parent="1">
          <mxGeometry x="440" y="238" width="50" height="30" as="geometry" />
        </mxCell>
        <mxCell id="MFuc4uuLCi1EUsn1ANaO-34" style="edgeStyle=orthogonalEdgeStyle;rounded=0;orthogonalLoop=1;jettySize=auto;html=1;exitX=1;exitY=0.5;exitDx=0;exitDy=0;" edge="1" parent="1" source="MFuc4uuLCi1EUsn1ANaO-33" target="MFuc4uuLCi1EUsn1ANaO-35">
          <mxGeometry relative="1" as="geometry">
            <mxPoint x="670" y="270" as="targetPoint" />
          </mxGeometry>
        </mxCell>
        <mxCell id="MFuc4uuLCi1EUsn1ANaO-33" value="write sum" style="shape=parallelogram;perimeter=parallelogramPerimeter;whiteSpace=wrap;html=1;fixedSize=1;" vertex="1" parent="1">
          <mxGeometry x="550" y="255" width="80" height="30" as="geometry" />
        </mxCell>
        <mxCell id="MFuc4uuLCi1EUsn1ANaO-35" value="end" style="ellipse;whiteSpace=wrap;html=1;" vertex="1" parent="1">
          <mxGeometry x="670" y="255" width="50" height="30" as="geometry" />
        </mxCell>
        <mxCell id="KuYHK6JZLbvT1c3w7Jmm-1" value="o" style="text;html=1;align=center;verticalAlign=middle;resizable=0;points=[];autosize=1;strokeColor=none;fillColor=none;" vertex="1" parent="1">
          <mxGeometry x="620" y="238" width="30" height="30" as="geometry" />
        </mxCell>
        <mxCell id="KuYHK6JZLbvT1c3w7Jmm-2" value="i" style="text;html=1;align=center;verticalAlign=middle;resizable=0;points=[];autosize=1;strokeColor=none;fillColor=none;" vertex="1" parent="1">
          <mxGeometry x="470" y="328" width="30" height="30" as="geometry" />
        </mxCell>
      </root>
    </mxGraphModel>
  </diagram>
  <diagram id="THPXi0Hhvzh2XRfElUgX" name="Pagina-4">
    <mxGraphModel dx="1539" dy="779" grid="1" gridSize="10" guides="1" tooltips="1" connect="1" arrows="1" fold="1" page="1" pageScale="1" pageWidth="827" pageHeight="1169" math="0" shadow="0">
      <root>
        <mxCell id="0" />
        <mxCell id="1" parent="0" />
        <mxCell id="UHBdJFZd3jiWuC4nxw-w-2" style="edgeStyle=orthogonalEdgeStyle;rounded=0;orthogonalLoop=1;jettySize=auto;html=1;" edge="1" parent="1" source="UHBdJFZd3jiWuC4nxw-w-1">
          <mxGeometry relative="1" as="geometry">
            <mxPoint x="-415" y="140" as="targetPoint" />
          </mxGeometry>
        </mxCell>
        <mxCell id="UHBdJFZd3jiWuC4nxw-w-1" value="start" style="ellipse;whiteSpace=wrap;html=1;" vertex="1" parent="1">
          <mxGeometry x="-480" y="20" width="130" height="60" as="geometry" />
        </mxCell>
        <mxCell id="UHBdJFZd3jiWuC4nxw-w-4" style="edgeStyle=orthogonalEdgeStyle;rounded=0;orthogonalLoop=1;jettySize=auto;html=1;" edge="1" parent="1" source="UHBdJFZd3jiWuC4nxw-w-3" target="UHBdJFZd3jiWuC4nxw-w-5">
          <mxGeometry relative="1" as="geometry">
            <mxPoint x="-420" y="250" as="targetPoint" />
          </mxGeometry>
        </mxCell>
        <mxCell id="UHBdJFZd3jiWuC4nxw-w-3" value="read n" style="shape=parallelogram;perimeter=parallelogramPerimeter;whiteSpace=wrap;html=1;fixedSize=1;" vertex="1" parent="1">
          <mxGeometry x="-480" y="140" width="120" height="50" as="geometry" />
        </mxCell>
        <mxCell id="UHBdJFZd3jiWuC4nxw-w-6" style="edgeStyle=orthogonalEdgeStyle;rounded=0;orthogonalLoop=1;jettySize=auto;html=1;" edge="1" parent="1" source="UHBdJFZd3jiWuC4nxw-w-5">
          <mxGeometry relative="1" as="geometry">
            <mxPoint x="-300" y="260" as="targetPoint" />
          </mxGeometry>
        </mxCell>
        <mxCell id="UHBdJFZd3jiWuC4nxw-w-7" style="edgeStyle=orthogonalEdgeStyle;rounded=0;orthogonalLoop=1;jettySize=auto;html=1;" edge="1" parent="1" source="UHBdJFZd3jiWuC4nxw-w-5">
          <mxGeometry relative="1" as="geometry">
            <mxPoint x="-530" y="260" as="targetPoint" />
          </mxGeometry>
        </mxCell>
        <mxCell id="UHBdJFZd3jiWuC4nxw-w-5" value="n%2==0" style="rhombus;whiteSpace=wrap;html=1;" vertex="1" parent="1">
          <mxGeometry x="-460" y="220" width="80" height="80" as="geometry" />
        </mxCell>
        <mxCell id="UHBdJFZd3jiWuC4nxw-w-8" value="true" style="text;html=1;align=center;verticalAlign=middle;resizable=0;points=[];autosize=1;strokeColor=none;fillColor=none;" vertex="1" parent="1">
          <mxGeometry x="-360" y="238" width="40" height="30" as="geometry" />
        </mxCell>
        <mxCell id="UHBdJFZd3jiWuC4nxw-w-9" value="false" style="text;html=1;align=center;verticalAlign=middle;resizable=0;points=[];autosize=1;strokeColor=none;fillColor=none;" vertex="1" parent="1">
          <mxGeometry x="-510" y="238" width="50" height="30" as="geometry" />
        </mxCell>
        <mxCell id="UHBdJFZd3jiWuC4nxw-w-10" value="" style="endArrow=classic;html=1;rounded=0;" edge="1" parent="1">
          <mxGeometry width="50" height="50" relative="1" as="geometry">
            <mxPoint x="-300" y="260" as="sourcePoint" />
            <mxPoint x="-300" y="290" as="targetPoint" />
          </mxGeometry>
        </mxCell>
        <mxCell id="UHBdJFZd3jiWuC4nxw-w-11" value="" style="endArrow=classic;html=1;rounded=0;" edge="1" parent="1" target="UHBdJFZd3jiWuC4nxw-w-12">
          <mxGeometry width="50" height="50" relative="1" as="geometry">
            <mxPoint x="-530" y="260" as="sourcePoint" />
            <mxPoint x="-530" y="320" as="targetPoint" />
          </mxGeometry>
        </mxCell>
        <mxCell id="UHBdJFZd3jiWuC4nxw-w-14" style="edgeStyle=orthogonalEdgeStyle;rounded=0;orthogonalLoop=1;jettySize=auto;html=1;exitX=0.5;exitY=1;exitDx=0;exitDy=0;" edge="1" parent="1" source="UHBdJFZd3jiWuC4nxw-w-12">
          <mxGeometry relative="1" as="geometry">
            <mxPoint x="-530" y="360" as="targetPoint" />
          </mxGeometry>
        </mxCell>
        <mxCell id="UHBdJFZd3jiWuC4nxw-w-12" value="write&lt;div&gt;&quot;Il numero è dispari&quot;&lt;/div&gt;" style="shape=parallelogram;perimeter=parallelogramPerimeter;whiteSpace=wrap;html=1;fixedSize=1;" vertex="1" parent="1">
          <mxGeometry x="-600" y="290" width="140" height="40" as="geometry" />
        </mxCell>
        <mxCell id="UHBdJFZd3jiWuC4nxw-w-15" style="edgeStyle=orthogonalEdgeStyle;rounded=0;orthogonalLoop=1;jettySize=auto;html=1;exitX=0.5;exitY=1;exitDx=0;exitDy=0;" edge="1" parent="1" source="UHBdJFZd3jiWuC4nxw-w-13">
          <mxGeometry relative="1" as="geometry">
            <mxPoint x="-300" y="360" as="targetPoint" />
          </mxGeometry>
        </mxCell>
        <mxCell id="UHBdJFZd3jiWuC4nxw-w-13" value="write&lt;div&gt;&quot;Il numero è pari&quot;&lt;/div&gt;" style="shape=parallelogram;perimeter=parallelogramPerimeter;whiteSpace=wrap;html=1;fixedSize=1;" vertex="1" parent="1">
          <mxGeometry x="-360" y="290" width="120" height="40" as="geometry" />
        </mxCell>
        <mxCell id="UHBdJFZd3jiWuC4nxw-w-16" value="" style="endArrow=classic;html=1;rounded=0;" edge="1" parent="1">
          <mxGeometry width="50" height="50" relative="1" as="geometry">
            <mxPoint x="-530" y="360" as="sourcePoint" />
            <mxPoint x="-430" y="360" as="targetPoint" />
          </mxGeometry>
        </mxCell>
        <mxCell id="UHBdJFZd3jiWuC4nxw-w-17" value="" style="endArrow=classic;html=1;rounded=0;" edge="1" parent="1">
          <mxGeometry width="50" height="50" relative="1" as="geometry">
            <mxPoint x="-300" y="360" as="sourcePoint" />
            <mxPoint x="-410" y="360" as="targetPoint" />
          </mxGeometry>
        </mxCell>
        <mxCell id="UHBdJFZd3jiWuC4nxw-w-19" style="edgeStyle=orthogonalEdgeStyle;rounded=0;orthogonalLoop=1;jettySize=auto;html=1;" edge="1" parent="1" source="UHBdJFZd3jiWuC4nxw-w-18" target="UHBdJFZd3jiWuC4nxw-w-20">
          <mxGeometry relative="1" as="geometry">
            <mxPoint x="-420" y="420" as="targetPoint" />
          </mxGeometry>
        </mxCell>
        <mxCell id="UHBdJFZd3jiWuC4nxw-w-18" value="" style="ellipse;whiteSpace=wrap;html=1;aspect=fixed;" vertex="1" parent="1">
          <mxGeometry x="-430" y="350" width="20" height="20" as="geometry" />
        </mxCell>
        <mxCell id="UHBdJFZd3jiWuC4nxw-w-20" value="end" style="ellipse;whiteSpace=wrap;html=1;" vertex="1" parent="1">
          <mxGeometry x="-465" y="400" width="90" height="30" as="geometry" />
        </mxCell>
        <mxCell id="UHBdJFZd3jiWuC4nxw-w-21" value="i" style="text;html=1;align=center;verticalAlign=middle;resizable=0;points=[];autosize=1;strokeColor=none;fillColor=none;" vertex="1" parent="1">
          <mxGeometry x="-365" y="118" width="30" height="30" as="geometry" />
        </mxCell>
        <mxCell id="UHBdJFZd3jiWuC4nxw-w-22" value="o" style="text;html=1;align=center;verticalAlign=middle;resizable=0;points=[];autosize=1;strokeColor=none;fillColor=none;" vertex="1" parent="1">
          <mxGeometry x="-250" y="270" width="30" height="30" as="geometry" />
        </mxCell>
        <mxCell id="UHBdJFZd3jiWuC4nxw-w-23" value="o" style="text;html=1;align=center;verticalAlign=middle;resizable=0;points=[];autosize=1;strokeColor=none;fillColor=none;" vertex="1" parent="1">
          <mxGeometry x="-600" y="268" width="30" height="30" as="geometry" />
        </mxCell>
      </root>
    </mxGraphModel>
  </diagram>
  <diagram id="OMcL0hZWMXUCsWiHGHQa" name="Pagina-5">
    <mxGraphModel dx="1187" dy="1298" grid="1" gridSize="10" guides="1" tooltips="1" connect="1" arrows="1" fold="1" page="1" pageScale="1" pageWidth="827" pageHeight="1169" math="0" shadow="0">
      <root>
        <mxCell id="0" />
        <mxCell id="1" parent="0" />
        <mxCell id="7LbDsEPKersLS7z39FPR-3" style="edgeStyle=orthogonalEdgeStyle;rounded=0;orthogonalLoop=1;jettySize=auto;html=1;entryX=0.5;entryY=0;entryDx=0;entryDy=0;" edge="1" parent="1" source="7LbDsEPKersLS7z39FPR-1" target="7LbDsEPKersLS7z39FPR-2">
          <mxGeometry relative="1" as="geometry" />
        </mxCell>
        <mxCell id="7LbDsEPKersLS7z39FPR-1" value="start" style="ellipse;whiteSpace=wrap;html=1;" vertex="1" parent="1">
          <mxGeometry x="310" y="20" width="120" height="80" as="geometry" />
        </mxCell>
        <mxCell id="7LbDsEPKersLS7z39FPR-5" style="edgeStyle=orthogonalEdgeStyle;rounded=0;orthogonalLoop=1;jettySize=auto;html=1;entryX=0.5;entryY=0;entryDx=0;entryDy=0;" edge="1" parent="1" source="7LbDsEPKersLS7z39FPR-2" target="7LbDsEPKersLS7z39FPR-4">
          <mxGeometry relative="1" as="geometry" />
        </mxCell>
        <mxCell id="7LbDsEPKersLS7z39FPR-2" value="read n" style="shape=parallelogram;perimeter=parallelogramPerimeter;whiteSpace=wrap;html=1;fixedSize=1;" vertex="1" parent="1">
          <mxGeometry x="310" y="150" width="120" height="40" as="geometry" />
        </mxCell>
        <mxCell id="7LbDsEPKersLS7z39FPR-13" style="edgeStyle=orthogonalEdgeStyle;rounded=0;orthogonalLoop=1;jettySize=auto;html=1;exitX=0.5;exitY=1;exitDx=0;exitDy=0;" edge="1" parent="1" source="7LbDsEPKersLS7z39FPR-4">
          <mxGeometry relative="1" as="geometry">
            <mxPoint x="370" y="360" as="targetPoint" />
          </mxGeometry>
        </mxCell>
        <mxCell id="7LbDsEPKersLS7z39FPR-16" style="edgeStyle=orthogonalEdgeStyle;rounded=0;orthogonalLoop=1;jettySize=auto;html=1;exitX=1;exitY=0.5;exitDx=0;exitDy=0;" edge="1" parent="1" source="7LbDsEPKersLS7z39FPR-4">
          <mxGeometry relative="1" as="geometry">
            <mxPoint x="740" y="340" as="targetPoint" />
            <Array as="points">
              <mxPoint x="700" y="280" />
              <mxPoint x="700" y="280" />
            </Array>
          </mxGeometry>
        </mxCell>
        <mxCell id="7LbDsEPKersLS7z39FPR-4" value="n&amp;lt;2" style="rhombus;whiteSpace=wrap;html=1;" vertex="1" parent="1">
          <mxGeometry x="330" y="240" width="80" height="80" as="geometry" />
        </mxCell>
        <mxCell id="7LbDsEPKersLS7z39FPR-7" value="true" style="text;html=1;align=center;verticalAlign=middle;resizable=0;points=[];autosize=1;strokeColor=none;fillColor=none;" vertex="1" parent="1">
          <mxGeometry x="420" y="248" width="40" height="30" as="geometry" />
        </mxCell>
        <mxCell id="7LbDsEPKersLS7z39FPR-14" value="false" style="text;html=1;align=center;verticalAlign=middle;resizable=0;points=[];autosize=1;strokeColor=none;fillColor=none;" vertex="1" parent="1">
          <mxGeometry x="365" y="318" width="50" height="30" as="geometry" />
        </mxCell>
        <mxCell id="7LbDsEPKersLS7z39FPR-18" style="edgeStyle=orthogonalEdgeStyle;rounded=0;orthogonalLoop=1;jettySize=auto;html=1;" edge="1" parent="1" source="7LbDsEPKersLS7z39FPR-36" target="7LbDsEPKersLS7z39FPR-19">
          <mxGeometry relative="1" as="geometry">
            <mxPoint x="370" y="470" as="targetPoint" />
          </mxGeometry>
        </mxCell>
        <mxCell id="7LbDsEPKersLS7z39FPR-17" value="div=2" style="rounded=0;whiteSpace=wrap;html=1;" vertex="1" parent="1">
          <mxGeometry x="310" y="348" width="120" height="60" as="geometry" />
        </mxCell>
        <mxCell id="7LbDsEPKersLS7z39FPR-20" style="edgeStyle=orthogonalEdgeStyle;rounded=0;orthogonalLoop=1;jettySize=auto;html=1;" edge="1" parent="1" source="7LbDsEPKersLS7z39FPR-19" target="7LbDsEPKersLS7z39FPR-22">
          <mxGeometry relative="1" as="geometry">
            <mxPoint x="490" y="500" as="targetPoint" />
          </mxGeometry>
        </mxCell>
        <mxCell id="7LbDsEPKersLS7z39FPR-23" style="edgeStyle=orthogonalEdgeStyle;rounded=0;orthogonalLoop=1;jettySize=auto;html=1;exitX=0;exitY=0.5;exitDx=0;exitDy=0;" edge="1" parent="1" source="7LbDsEPKersLS7z39FPR-19">
          <mxGeometry relative="1" as="geometry">
            <mxPoint x="190" y="520" as="targetPoint" />
          </mxGeometry>
        </mxCell>
        <mxCell id="7LbDsEPKersLS7z39FPR-19" value="div&amp;lt;n" style="rhombus;whiteSpace=wrap;html=1;" vertex="1" parent="1">
          <mxGeometry x="330" y="480" width="80" height="80" as="geometry" />
        </mxCell>
        <mxCell id="7LbDsEPKersLS7z39FPR-21" value="falso" style="text;html=1;align=center;verticalAlign=middle;resizable=0;points=[];autosize=1;strokeColor=none;fillColor=none;" vertex="1" parent="1">
          <mxGeometry x="405" y="468" width="50" height="30" as="geometry" />
        </mxCell>
        <mxCell id="7LbDsEPKersLS7z39FPR-43" style="edgeStyle=orthogonalEdgeStyle;rounded=0;orthogonalLoop=1;jettySize=auto;html=1;" edge="1" parent="1" source="7LbDsEPKersLS7z39FPR-22">
          <mxGeometry relative="1" as="geometry">
            <mxPoint x="565" y="800" as="targetPoint" />
          </mxGeometry>
        </mxCell>
        <mxCell id="7LbDsEPKersLS7z39FPR-22" value="write&amp;nbsp;&lt;div&gt;&quot;il numero è primo&quot;&lt;/div&gt;" style="shape=parallelogram;perimeter=parallelogramPerimeter;whiteSpace=wrap;html=1;fixedSize=1;" vertex="1" parent="1">
          <mxGeometry x="500" y="490" width="130" height="60" as="geometry" />
        </mxCell>
        <mxCell id="7LbDsEPKersLS7z39FPR-24" value="true" style="text;html=1;align=center;verticalAlign=middle;resizable=0;points=[];autosize=1;strokeColor=none;fillColor=none;" vertex="1" parent="1">
          <mxGeometry x="300" y="470" width="40" height="30" as="geometry" />
        </mxCell>
        <mxCell id="7LbDsEPKersLS7z39FPR-25" value="" style="endArrow=classic;html=1;rounded=0;" edge="1" parent="1">
          <mxGeometry width="50" height="50" relative="1" as="geometry">
            <mxPoint x="190" y="530" as="sourcePoint" />
            <mxPoint x="190" y="570" as="targetPoint" />
          </mxGeometry>
        </mxCell>
        <mxCell id="7LbDsEPKersLS7z39FPR-30" style="edgeStyle=orthogonalEdgeStyle;rounded=0;orthogonalLoop=1;jettySize=auto;html=1;" edge="1" parent="1" source="7LbDsEPKersLS7z39FPR-26">
          <mxGeometry relative="1" as="geometry">
            <mxPoint x="280" y="610" as="targetPoint" />
          </mxGeometry>
        </mxCell>
        <mxCell id="7LbDsEPKersLS7z39FPR-34" style="edgeStyle=orthogonalEdgeStyle;rounded=0;orthogonalLoop=1;jettySize=auto;html=1;exitX=0.5;exitY=1;exitDx=0;exitDy=0;" edge="1" parent="1" source="7LbDsEPKersLS7z39FPR-26">
          <mxGeometry relative="1" as="geometry">
            <mxPoint x="190.1428571428571" y="720" as="targetPoint" />
          </mxGeometry>
        </mxCell>
        <mxCell id="7LbDsEPKersLS7z39FPR-35" value="false" style="edgeLabel;html=1;align=center;verticalAlign=middle;resizable=0;points=[];" vertex="1" connectable="0" parent="7LbDsEPKersLS7z39FPR-34">
          <mxGeometry x="1" y="14" relative="1" as="geometry">
            <mxPoint x="-24" y="-60" as="offset" />
          </mxGeometry>
        </mxCell>
        <mxCell id="7LbDsEPKersLS7z39FPR-26" value="n%div==0" style="rhombus;whiteSpace=wrap;html=1;" vertex="1" parent="1">
          <mxGeometry x="150" y="570" width="80" height="80" as="geometry" />
        </mxCell>
        <mxCell id="7LbDsEPKersLS7z39FPR-31" value="true" style="text;html=1;align=center;verticalAlign=middle;resizable=0;points=[];autosize=1;strokeColor=none;fillColor=none;" vertex="1" parent="1">
          <mxGeometry x="230" y="585" width="40" height="30" as="geometry" />
        </mxCell>
        <mxCell id="7LbDsEPKersLS7z39FPR-32" value="" style="endArrow=classic;html=1;rounded=0;" edge="1" parent="1" target="7LbDsEPKersLS7z39FPR-33">
          <mxGeometry width="50" height="50" relative="1" as="geometry">
            <mxPoint x="280" y="610" as="sourcePoint" />
            <mxPoint x="280" y="650" as="targetPoint" />
          </mxGeometry>
        </mxCell>
        <mxCell id="7LbDsEPKersLS7z39FPR-38" style="edgeStyle=orthogonalEdgeStyle;rounded=0;orthogonalLoop=1;jettySize=auto;html=1;" edge="1" parent="1" source="7LbDsEPKersLS7z39FPR-33">
          <mxGeometry relative="1" as="geometry">
            <mxPoint x="280" y="800" as="targetPoint" />
          </mxGeometry>
        </mxCell>
        <mxCell id="7LbDsEPKersLS7z39FPR-33" value="write&lt;br&gt;&lt;div&gt;&quot;il numero non è primo&quot;&lt;/div&gt;" style="shape=parallelogram;perimeter=parallelogramPerimeter;whiteSpace=wrap;html=1;fixedSize=1;" vertex="1" parent="1">
          <mxGeometry x="220" y="630" width="120" height="40" as="geometry" />
        </mxCell>
        <mxCell id="7LbDsEPKersLS7z39FPR-37" value="" style="edgeStyle=orthogonalEdgeStyle;rounded=0;orthogonalLoop=1;jettySize=auto;html=1;" edge="1" parent="1" source="7LbDsEPKersLS7z39FPR-17" target="7LbDsEPKersLS7z39FPR-36">
          <mxGeometry relative="1" as="geometry">
            <mxPoint x="370" y="480" as="targetPoint" />
            <mxPoint x="370" y="408" as="sourcePoint" />
          </mxGeometry>
        </mxCell>
        <mxCell id="7LbDsEPKersLS7z39FPR-36" value="" style="ellipse;whiteSpace=wrap;html=1;aspect=fixed;" vertex="1" parent="1">
          <mxGeometry x="365" y="440" width="10" height="10" as="geometry" />
        </mxCell>
        <mxCell id="7LbDsEPKersLS7z39FPR-41" style="edgeStyle=orthogonalEdgeStyle;rounded=0;orthogonalLoop=1;jettySize=auto;html=1;" edge="1" parent="1" source="7LbDsEPKersLS7z39FPR-40">
          <mxGeometry relative="1" as="geometry">
            <mxPoint x="70" y="450" as="targetPoint" />
          </mxGeometry>
        </mxCell>
        <mxCell id="7LbDsEPKersLS7z39FPR-40" value="div = div+1" style="rounded=0;whiteSpace=wrap;html=1;" vertex="1" parent="1">
          <mxGeometry x="140" y="720" width="100" height="30" as="geometry" />
        </mxCell>
        <mxCell id="7LbDsEPKersLS7z39FPR-42" value="" style="endArrow=classic;html=1;rounded=0;entryX=0;entryY=0.5;entryDx=0;entryDy=0;" edge="1" parent="1" target="7LbDsEPKersLS7z39FPR-36">
          <mxGeometry width="50" height="50" relative="1" as="geometry">
            <mxPoint x="70" y="450" as="sourcePoint" />
            <mxPoint x="120" y="400" as="targetPoint" />
          </mxGeometry>
        </mxCell>
        <mxCell id="7LbDsEPKersLS7z39FPR-45" style="edgeStyle=orthogonalEdgeStyle;rounded=0;orthogonalLoop=1;jettySize=auto;html=1;" edge="1" parent="1" source="7LbDsEPKersLS7z39FPR-44">
          <mxGeometry relative="1" as="geometry">
            <mxPoint x="735" y="800" as="targetPoint" />
          </mxGeometry>
        </mxCell>
        <mxCell id="7LbDsEPKersLS7z39FPR-44" value="write&lt;div&gt;&lt;div&gt;&quot;il numero è primo&quot;&lt;/div&gt;&lt;/div&gt;" style="shape=parallelogram;perimeter=parallelogramPerimeter;whiteSpace=wrap;html=1;fixedSize=1;" vertex="1" parent="1">
          <mxGeometry x="670" y="350" width="130" height="60" as="geometry" />
        </mxCell>
        <mxCell id="7LbDsEPKersLS7z39FPR-49" style="edgeStyle=orthogonalEdgeStyle;rounded=0;orthogonalLoop=1;jettySize=auto;html=1;" edge="1" parent="1" source="7LbDsEPKersLS7z39FPR-46" target="7LbDsEPKersLS7z39FPR-50">
          <mxGeometry relative="1" as="geometry">
            <mxPoint x="565" y="850" as="targetPoint" />
          </mxGeometry>
        </mxCell>
        <mxCell id="7LbDsEPKersLS7z39FPR-46" value="" style="ellipse;whiteSpace=wrap;html=1;aspect=fixed;" vertex="1" parent="1">
          <mxGeometry x="557.5" y="800" width="15" height="15" as="geometry" />
        </mxCell>
        <mxCell id="7LbDsEPKersLS7z39FPR-47" value="" style="endArrow=classic;html=1;rounded=0;entryX=0;entryY=0;entryDx=0;entryDy=0;" edge="1" parent="1" target="7LbDsEPKersLS7z39FPR-46">
          <mxGeometry width="50" height="50" relative="1" as="geometry">
            <mxPoint x="280" y="800" as="sourcePoint" />
            <mxPoint x="330" y="750" as="targetPoint" />
          </mxGeometry>
        </mxCell>
        <mxCell id="7LbDsEPKersLS7z39FPR-48" value="" style="endArrow=classic;html=1;rounded=0;entryX=1;entryY=0;entryDx=0;entryDy=0;" edge="1" parent="1" target="7LbDsEPKersLS7z39FPR-46">
          <mxGeometry width="50" height="50" relative="1" as="geometry">
            <mxPoint x="730" y="800" as="sourcePoint" />
            <mxPoint x="780" y="750" as="targetPoint" />
          </mxGeometry>
        </mxCell>
        <mxCell id="7LbDsEPKersLS7z39FPR-50" value="end" style="ellipse;whiteSpace=wrap;html=1;" vertex="1" parent="1">
          <mxGeometry x="532.5" y="840" width="65" height="30" as="geometry" />
        </mxCell>
        <mxCell id="7LbDsEPKersLS7z39FPR-51" value="i" style="text;html=1;align=center;verticalAlign=middle;resizable=0;points=[];autosize=1;strokeColor=none;fillColor=none;" vertex="1" parent="1">
          <mxGeometry x="420" y="128" width="30" height="30" as="geometry" />
        </mxCell>
        <mxCell id="7LbDsEPKersLS7z39FPR-52" value="o" style="text;html=1;align=center;verticalAlign=middle;resizable=0;points=[];autosize=1;strokeColor=none;fillColor=none;" vertex="1" parent="1">
          <mxGeometry x="670" y="330" width="30" height="30" as="geometry" />
        </mxCell>
        <mxCell id="7LbDsEPKersLS7z39FPR-53" value="o" style="text;html=1;align=center;verticalAlign=middle;resizable=0;points=[];autosize=1;strokeColor=none;fillColor=none;" vertex="1" parent="1">
          <mxGeometry x="620" y="468" width="30" height="30" as="geometry" />
        </mxCell>
        <mxCell id="7LbDsEPKersLS7z39FPR-54" value="o" style="text;html=1;align=center;verticalAlign=middle;resizable=0;points=[];autosize=1;strokeColor=none;fillColor=none;" vertex="1" parent="1">
          <mxGeometry x="335" y="618" width="30" height="30" as="geometry" />
        </mxCell>
      </root>
    </mxGraphModel>
  </diagram>
  <diagram id="R7zDsElIfJUuALAb927A" name="Pagina-6">
    <mxGraphModel dx="712" dy="779" grid="1" gridSize="10" guides="1" tooltips="1" connect="1" arrows="1" fold="1" page="1" pageScale="1" pageWidth="827" pageHeight="1169" math="0" shadow="0">
      <root>
        <mxCell id="0" />
        <mxCell id="1" parent="0" />
        <mxCell id="czgD3rhcGOpkWf7mbOt2-2" style="edgeStyle=orthogonalEdgeStyle;rounded=0;orthogonalLoop=1;jettySize=auto;html=1;" edge="1" parent="1" source="czgD3rhcGOpkWf7mbOt2-1">
          <mxGeometry relative="1" as="geometry">
            <mxPoint x="354" y="140" as="targetPoint" />
          </mxGeometry>
        </mxCell>
        <mxCell id="czgD3rhcGOpkWf7mbOt2-1" value="start" style="ellipse;whiteSpace=wrap;html=1;" vertex="1" parent="1">
          <mxGeometry x="294" y="10" width="120" height="80" as="geometry" />
        </mxCell>
        <mxCell id="czgD3rhcGOpkWf7mbOt2-4" style="edgeStyle=orthogonalEdgeStyle;rounded=0;orthogonalLoop=1;jettySize=auto;html=1;" edge="1" parent="1" source="czgD3rhcGOpkWf7mbOt2-3">
          <mxGeometry relative="1" as="geometry">
            <mxPoint x="350" y="250" as="targetPoint" />
          </mxGeometry>
        </mxCell>
        <mxCell id="czgD3rhcGOpkWf7mbOt2-3" value="read n" style="shape=parallelogram;perimeter=parallelogramPerimeter;whiteSpace=wrap;html=1;fixedSize=1;" vertex="1" parent="1">
          <mxGeometry x="290" y="140" width="120" height="60" as="geometry" />
        </mxCell>
        <mxCell id="czgD3rhcGOpkWf7mbOt2-6" style="edgeStyle=orthogonalEdgeStyle;rounded=0;orthogonalLoop=1;jettySize=auto;html=1;" edge="1" parent="1" source="czgD3rhcGOpkWf7mbOt2-5">
          <mxGeometry relative="1" as="geometry">
            <mxPoint x="230" y="290" as="targetPoint" />
          </mxGeometry>
        </mxCell>
        <mxCell id="czgD3rhcGOpkWf7mbOt2-12" style="edgeStyle=orthogonalEdgeStyle;rounded=0;orthogonalLoop=1;jettySize=auto;html=1;entryX=0.5;entryY=0;entryDx=0;entryDy=0;" edge="1" parent="1" source="czgD3rhcGOpkWf7mbOt2-5" target="czgD3rhcGOpkWf7mbOt2-14">
          <mxGeometry relative="1" as="geometry">
            <mxPoint x="350" y="390" as="targetPoint" />
          </mxGeometry>
        </mxCell>
        <mxCell id="czgD3rhcGOpkWf7mbOt2-5" value="n&amp;gt;0" style="rhombus;whiteSpace=wrap;html=1;" vertex="1" parent="1">
          <mxGeometry x="310" y="250" width="80" height="80" as="geometry" />
        </mxCell>
        <mxCell id="czgD3rhcGOpkWf7mbOt2-7" value="false" style="text;html=1;align=center;verticalAlign=middle;resizable=0;points=[];autosize=1;strokeColor=none;fillColor=none;" vertex="1" parent="1">
          <mxGeometry x="235" y="258" width="50" height="30" as="geometry" />
        </mxCell>
        <mxCell id="czgD3rhcGOpkWf7mbOt2-8" value="" style="endArrow=classic;html=1;rounded=0;" edge="1" parent="1" source="czgD3rhcGOpkWf7mbOt2-10">
          <mxGeometry width="50" height="50" relative="1" as="geometry">
            <mxPoint x="235" y="288" as="sourcePoint" />
            <mxPoint x="230" y="170" as="targetPoint" />
          </mxGeometry>
        </mxCell>
        <mxCell id="czgD3rhcGOpkWf7mbOt2-9" value="" style="endArrow=classic;html=1;rounded=0;" edge="1" parent="1" target="czgD3rhcGOpkWf7mbOt2-3">
          <mxGeometry width="50" height="50" relative="1" as="geometry">
            <mxPoint x="230" y="170" as="sourcePoint" />
            <mxPoint x="280" y="120" as="targetPoint" />
          </mxGeometry>
        </mxCell>
        <mxCell id="czgD3rhcGOpkWf7mbOt2-11" value="" style="endArrow=classic;html=1;rounded=0;" edge="1" parent="1" target="czgD3rhcGOpkWf7mbOt2-10">
          <mxGeometry width="50" height="50" relative="1" as="geometry">
            <mxPoint x="235" y="288" as="sourcePoint" />
            <mxPoint x="230" y="170" as="targetPoint" />
          </mxGeometry>
        </mxCell>
        <mxCell id="czgD3rhcGOpkWf7mbOt2-10" value="write&amp;nbsp;&lt;div&gt;&quot;il numero deve essere positivo&quot;&lt;/div&gt;" style="shape=parallelogram;perimeter=parallelogramPerimeter;whiteSpace=wrap;html=1;fixedSize=1;" vertex="1" parent="1">
          <mxGeometry x="150" y="190" width="120" height="60" as="geometry" />
        </mxCell>
        <mxCell id="czgD3rhcGOpkWf7mbOt2-13" value="true" style="text;html=1;align=center;verticalAlign=middle;resizable=0;points=[];autosize=1;strokeColor=none;fillColor=none;" vertex="1" parent="1">
          <mxGeometry x="340" y="330" width="40" height="30" as="geometry" />
        </mxCell>
        <mxCell id="czgD3rhcGOpkWf7mbOt2-17" style="edgeStyle=orthogonalEdgeStyle;rounded=0;orthogonalLoop=1;jettySize=auto;html=1;exitX=0.5;exitY=1;exitDx=0;exitDy=0;" edge="1" parent="1" source="czgD3rhcGOpkWf7mbOt2-14">
          <mxGeometry relative="1" as="geometry">
            <mxPoint x="350" y="600" as="targetPoint" />
          </mxGeometry>
        </mxCell>
        <mxCell id="czgD3rhcGOpkWf7mbOt2-18" style="edgeStyle=orthogonalEdgeStyle;rounded=0;orthogonalLoop=1;jettySize=auto;html=1;exitX=1;exitY=0.5;exitDx=0;exitDy=0;" edge="1" parent="1" source="czgD3rhcGOpkWf7mbOt2-14">
          <mxGeometry relative="1" as="geometry">
            <mxPoint x="440" y="510" as="targetPoint" />
          </mxGeometry>
        </mxCell>
        <mxCell id="czgD3rhcGOpkWf7mbOt2-14" value="i&amp;lt;=n" style="rhombus;whiteSpace=wrap;html=1;" vertex="1" parent="1">
          <mxGeometry x="310" y="470" width="80" height="80" as="geometry" />
        </mxCell>
        <mxCell id="czgD3rhcGOpkWf7mbOt2-15" value="i=1" style="rounded=0;whiteSpace=wrap;html=1;" vertex="1" parent="1">
          <mxGeometry x="290" y="360" width="124" height="30" as="geometry" />
        </mxCell>
        <mxCell id="czgD3rhcGOpkWf7mbOt2-16" value="fattoriale =1" style="rounded=0;whiteSpace=wrap;html=1;" vertex="1" parent="1">
          <mxGeometry x="290" y="400" width="130" height="30" as="geometry" />
        </mxCell>
        <mxCell id="czgD3rhcGOpkWf7mbOt2-20" style="edgeStyle=orthogonalEdgeStyle;rounded=0;orthogonalLoop=1;jettySize=auto;html=1;" edge="1" parent="1" source="czgD3rhcGOpkWf7mbOt2-19">
          <mxGeometry relative="1" as="geometry">
            <mxPoint x="352.5" y="670" as="targetPoint" />
          </mxGeometry>
        </mxCell>
        <mxCell id="czgD3rhcGOpkWf7mbOt2-19" value="fattoriale=fattoriale*i" style="rounded=0;whiteSpace=wrap;html=1;" vertex="1" parent="1">
          <mxGeometry x="290" y="600" width="125" height="30" as="geometry" />
        </mxCell>
        <mxCell id="czgD3rhcGOpkWf7mbOt2-22" style="edgeStyle=orthogonalEdgeStyle;rounded=0;orthogonalLoop=1;jettySize=auto;html=1;" edge="1" parent="1" source="czgD3rhcGOpkWf7mbOt2-21">
          <mxGeometry relative="1" as="geometry">
            <mxPoint x="220" y="680" as="targetPoint" />
          </mxGeometry>
        </mxCell>
        <mxCell id="czgD3rhcGOpkWf7mbOt2-21" value="i+=1" style="rounded=0;whiteSpace=wrap;html=1;" vertex="1" parent="1">
          <mxGeometry x="290" y="670" width="124" height="20" as="geometry" />
        </mxCell>
        <mxCell id="czgD3rhcGOpkWf7mbOt2-23" value="true" style="text;html=1;align=center;verticalAlign=middle;resizable=0;points=[];autosize=1;strokeColor=none;fillColor=none;" vertex="1" parent="1">
          <mxGeometry x="340" y="550" width="40" height="30" as="geometry" />
        </mxCell>
        <mxCell id="czgD3rhcGOpkWf7mbOt2-24" value="" style="endArrow=classic;html=1;rounded=0;" edge="1" parent="1">
          <mxGeometry width="50" height="50" relative="1" as="geometry">
            <mxPoint x="220" y="680" as="sourcePoint" />
            <mxPoint x="220" y="510" as="targetPoint" />
          </mxGeometry>
        </mxCell>
        <mxCell id="czgD3rhcGOpkWf7mbOt2-25" value="" style="endArrow=classic;html=1;rounded=0;entryX=0;entryY=0.5;entryDx=0;entryDy=0;" edge="1" parent="1" target="czgD3rhcGOpkWf7mbOt2-14">
          <mxGeometry width="50" height="50" relative="1" as="geometry">
            <mxPoint x="220" y="510" as="sourcePoint" />
            <mxPoint x="270" y="460" as="targetPoint" />
          </mxGeometry>
        </mxCell>
        <mxCell id="czgD3rhcGOpkWf7mbOt2-26" value="false" style="text;html=1;align=center;verticalAlign=middle;resizable=0;points=[];autosize=1;strokeColor=none;fillColor=none;" vertex="1" parent="1">
          <mxGeometry x="380" y="490" width="50" height="30" as="geometry" />
        </mxCell>
        <mxCell id="czgD3rhcGOpkWf7mbOt2-28" style="edgeStyle=orthogonalEdgeStyle;rounded=0;orthogonalLoop=1;jettySize=auto;html=1;exitX=1;exitY=0.5;exitDx=0;exitDy=0;" edge="1" parent="1" source="czgD3rhcGOpkWf7mbOt2-27" target="czgD3rhcGOpkWf7mbOt2-29">
          <mxGeometry relative="1" as="geometry">
            <mxPoint x="580" y="510" as="targetPoint" />
          </mxGeometry>
        </mxCell>
        <mxCell id="czgD3rhcGOpkWf7mbOt2-27" value="write&lt;div&gt;fattoriale&lt;/div&gt;" style="shape=parallelogram;perimeter=parallelogramPerimeter;whiteSpace=wrap;html=1;fixedSize=1;" vertex="1" parent="1">
          <mxGeometry x="430" y="480" width="120" height="60" as="geometry" />
        </mxCell>
        <mxCell id="czgD3rhcGOpkWf7mbOt2-29" value="end" style="ellipse;whiteSpace=wrap;html=1;" vertex="1" parent="1">
          <mxGeometry x="590" y="495" width="70" height="30" as="geometry" />
        </mxCell>
        <mxCell id="czgD3rhcGOpkWf7mbOt2-30" value="i" style="text;html=1;align=center;verticalAlign=middle;resizable=0;points=[];autosize=1;strokeColor=none;fillColor=none;" vertex="1" parent="1">
          <mxGeometry x="399" y="128" width="30" height="30" as="geometry" />
        </mxCell>
        <mxCell id="czgD3rhcGOpkWf7mbOt2-31" value="o" style="text;html=1;align=center;verticalAlign=middle;resizable=0;points=[];autosize=1;strokeColor=none;fillColor=none;" vertex="1" parent="1">
          <mxGeometry x="535" y="460" width="30" height="30" as="geometry" />
        </mxCell>
      </root>
    </mxGraphModel>
  </diagram>
  <diagram id="OG5hr7GopWE5KS0mKOXW" name="Pagina-7">
    <mxGraphModel dx="712" dy="779" grid="1" gridSize="10" guides="1" tooltips="1" connect="1" arrows="1" fold="1" page="1" pageScale="1" pageWidth="827" pageHeight="1169" math="0" shadow="0">
      <root>
        <mxCell id="0" />
        <mxCell id="1" parent="0" />
        <mxCell id="8xf4XGvSwWYVVuD-30Ni-2" style="edgeStyle=orthogonalEdgeStyle;rounded=0;orthogonalLoop=1;jettySize=auto;html=1;" edge="1" parent="1" source="8xf4XGvSwWYVVuD-30Ni-1">
          <mxGeometry relative="1" as="geometry">
            <mxPoint x="310" y="130" as="targetPoint" />
          </mxGeometry>
        </mxCell>
        <mxCell id="8xf4XGvSwWYVVuD-30Ni-1" value="start" style="ellipse;whiteSpace=wrap;html=1;" vertex="1" parent="1">
          <mxGeometry x="250" y="10" width="120" height="80" as="geometry" />
        </mxCell>
        <mxCell id="8xf4XGvSwWYVVuD-30Ni-6" style="edgeStyle=orthogonalEdgeStyle;rounded=0;orthogonalLoop=1;jettySize=auto;html=1;exitX=0.5;exitY=1;exitDx=0;exitDy=0;entryX=0.5;entryY=0;entryDx=0;entryDy=0;" edge="1" parent="1" source="8xf4XGvSwWYVVuD-30Ni-3" target="8xf4XGvSwWYVVuD-30Ni-4">
          <mxGeometry relative="1" as="geometry" />
        </mxCell>
        <mxCell id="8xf4XGvSwWYVVuD-30Ni-3" value="i=0" style="rounded=0;whiteSpace=wrap;html=1;" vertex="1" parent="1">
          <mxGeometry x="250" y="130" width="120" height="40" as="geometry" />
        </mxCell>
        <mxCell id="8xf4XGvSwWYVVuD-30Ni-7" style="edgeStyle=orthogonalEdgeStyle;rounded=0;orthogonalLoop=1;jettySize=auto;html=1;exitX=0.5;exitY=1;exitDx=0;exitDy=0;entryX=0.5;entryY=0;entryDx=0;entryDy=0;" edge="1" parent="1" source="8xf4XGvSwWYVVuD-30Ni-4" target="8xf4XGvSwWYVVuD-30Ni-5">
          <mxGeometry relative="1" as="geometry" />
        </mxCell>
        <mxCell id="8xf4XGvSwWYVVuD-30Ni-4" value="c_p=0" style="rounded=0;whiteSpace=wrap;html=1;" vertex="1" parent="1">
          <mxGeometry x="250" y="200" width="120" height="40" as="geometry" />
        </mxCell>
        <mxCell id="8xf4XGvSwWYVVuD-30Ni-9" style="edgeStyle=orthogonalEdgeStyle;rounded=0;orthogonalLoop=1;jettySize=auto;html=1;" edge="1" parent="1" source="8xf4XGvSwWYVVuD-30Ni-5">
          <mxGeometry relative="1" as="geometry">
            <mxPoint x="310" y="360" as="targetPoint" />
          </mxGeometry>
        </mxCell>
        <mxCell id="8xf4XGvSwWYVVuD-30Ni-5" value="c_d=0" style="rounded=0;whiteSpace=wrap;html=1;" vertex="1" parent="1">
          <mxGeometry x="250" y="280" width="120" height="40" as="geometry" />
        </mxCell>
        <mxCell id="8xf4XGvSwWYVVuD-30Ni-11" style="edgeStyle=orthogonalEdgeStyle;rounded=0;orthogonalLoop=1;jettySize=auto;html=1;" edge="1" parent="1" source="8xf4XGvSwWYVVuD-30Ni-10">
          <mxGeometry relative="1" as="geometry">
            <mxPoint x="310" y="480" as="targetPoint" />
          </mxGeometry>
        </mxCell>
        <mxCell id="8xf4XGvSwWYVVuD-30Ni-12" style="edgeStyle=orthogonalEdgeStyle;rounded=0;orthogonalLoop=1;jettySize=auto;html=1;" edge="1" parent="1" source="8xf4XGvSwWYVVuD-30Ni-10">
          <mxGeometry relative="1" as="geometry">
            <mxPoint x="390" y="400" as="targetPoint" />
          </mxGeometry>
        </mxCell>
        <mxCell id="8xf4XGvSwWYVVuD-30Ni-10" value="n&amp;lt;10" style="rhombus;whiteSpace=wrap;html=1;" vertex="1" parent="1">
          <mxGeometry x="270" y="360" width="80" height="80" as="geometry" />
        </mxCell>
        <mxCell id="8xf4XGvSwWYVVuD-30Ni-13" value="true" style="text;html=1;align=center;verticalAlign=middle;resizable=0;points=[];autosize=1;strokeColor=none;fillColor=none;" vertex="1" parent="1">
          <mxGeometry x="300" y="440" width="40" height="30" as="geometry" />
        </mxCell>
        <mxCell id="8xf4XGvSwWYVVuD-30Ni-15" style="edgeStyle=orthogonalEdgeStyle;rounded=0;orthogonalLoop=1;jettySize=auto;html=1;" edge="1" parent="1" source="8xf4XGvSwWYVVuD-30Ni-14">
          <mxGeometry relative="1" as="geometry">
            <mxPoint x="200" y="520" as="targetPoint" />
          </mxGeometry>
        </mxCell>
        <mxCell id="8xf4XGvSwWYVVuD-30Ni-16" style="edgeStyle=orthogonalEdgeStyle;rounded=0;orthogonalLoop=1;jettySize=auto;html=1;exitX=1;exitY=0.5;exitDx=0;exitDy=0;" edge="1" parent="1" source="8xf4XGvSwWYVVuD-30Ni-14">
          <mxGeometry relative="1" as="geometry">
            <mxPoint x="420" y="520" as="targetPoint" />
          </mxGeometry>
        </mxCell>
        <mxCell id="8xf4XGvSwWYVVuD-30Ni-14" value="n%2==0" style="rhombus;whiteSpace=wrap;html=1;" vertex="1" parent="1">
          <mxGeometry x="270" y="480" width="80" height="80" as="geometry" />
        </mxCell>
        <mxCell id="8xf4XGvSwWYVVuD-30Ni-17" value="true" style="text;html=1;align=center;verticalAlign=middle;resizable=0;points=[];autosize=1;strokeColor=none;fillColor=none;" vertex="1" parent="1">
          <mxGeometry x="220" y="488" width="40" height="30" as="geometry" />
        </mxCell>
        <mxCell id="8xf4XGvSwWYVVuD-30Ni-18" value="false" style="text;html=1;align=center;verticalAlign=middle;resizable=0;points=[];autosize=1;strokeColor=none;fillColor=none;" vertex="1" parent="1">
          <mxGeometry x="345" y="488" width="50" height="30" as="geometry" />
        </mxCell>
        <mxCell id="8xf4XGvSwWYVVuD-30Ni-19" value="" style="endArrow=classic;html=1;rounded=0;" edge="1" parent="1">
          <mxGeometry width="50" height="50" relative="1" as="geometry">
            <mxPoint x="200" y="520" as="sourcePoint" />
            <mxPoint x="200" y="560" as="targetPoint" />
          </mxGeometry>
        </mxCell>
        <mxCell id="8xf4XGvSwWYVVuD-30Ni-20" value="" style="endArrow=classic;html=1;rounded=0;" edge="1" parent="1">
          <mxGeometry width="50" height="50" relative="1" as="geometry">
            <mxPoint x="420" y="520" as="sourcePoint" />
            <mxPoint x="420" y="560" as="targetPoint" />
          </mxGeometry>
        </mxCell>
        <mxCell id="8xf4XGvSwWYVVuD-30Ni-21" value="c_p=c_p+1" style="rounded=0;whiteSpace=wrap;html=1;" vertex="1" parent="1">
          <mxGeometry x="140" y="560" width="120" height="60" as="geometry" />
        </mxCell>
        <mxCell id="8xf4XGvSwWYVVuD-30Ni-22" value="c_d=c_d+1" style="rounded=0;whiteSpace=wrap;html=1;" vertex="1" parent="1">
          <mxGeometry x="360" y="560" width="120" height="60" as="geometry" />
        </mxCell>
        <mxCell id="8xf4XGvSwWYVVuD-30Ni-23" value="" style="endArrow=classic;html=1;rounded=0;" edge="1" parent="1">
          <mxGeometry width="50" height="50" relative="1" as="geometry">
            <mxPoint x="200" y="620" as="sourcePoint" />
            <mxPoint x="200" y="660" as="targetPoint" />
          </mxGeometry>
        </mxCell>
        <mxCell id="8xf4XGvSwWYVVuD-30Ni-24" value="" style="endArrow=classic;html=1;rounded=0;" edge="1" parent="1">
          <mxGeometry width="50" height="50" relative="1" as="geometry">
            <mxPoint x="420" y="620" as="sourcePoint" />
            <mxPoint x="420" y="660" as="targetPoint" />
          </mxGeometry>
        </mxCell>
        <mxCell id="8xf4XGvSwWYVVuD-30Ni-25" value="" style="endArrow=classic;html=1;rounded=0;" edge="1" parent="1">
          <mxGeometry width="50" height="50" relative="1" as="geometry">
            <mxPoint x="200" y="660" as="sourcePoint" />
            <mxPoint x="310" y="660" as="targetPoint" />
          </mxGeometry>
        </mxCell>
        <mxCell id="8xf4XGvSwWYVVuD-30Ni-26" value="" style="endArrow=classic;html=1;rounded=0;" edge="1" parent="1">
          <mxGeometry width="50" height="50" relative="1" as="geometry">
            <mxPoint x="420" y="660" as="sourcePoint" />
            <mxPoint x="330" y="660" as="targetPoint" />
          </mxGeometry>
        </mxCell>
        <mxCell id="8xf4XGvSwWYVVuD-30Ni-29" style="edgeStyle=orthogonalEdgeStyle;rounded=0;orthogonalLoop=1;jettySize=auto;html=1;" edge="1" parent="1" source="8xf4XGvSwWYVVuD-30Ni-28" target="8xf4XGvSwWYVVuD-30Ni-30">
          <mxGeometry relative="1" as="geometry">
            <mxPoint x="320" y="710" as="targetPoint" />
          </mxGeometry>
        </mxCell>
        <mxCell id="8xf4XGvSwWYVVuD-30Ni-28" value="" style="ellipse;whiteSpace=wrap;html=1;aspect=fixed;" vertex="1" parent="1">
          <mxGeometry x="310" y="650" width="20" height="20" as="geometry" />
        </mxCell>
        <mxCell id="8xf4XGvSwWYVVuD-30Ni-31" style="edgeStyle=orthogonalEdgeStyle;rounded=0;orthogonalLoop=1;jettySize=auto;html=1;" edge="1" parent="1" source="8xf4XGvSwWYVVuD-30Ni-30">
          <mxGeometry relative="1" as="geometry">
            <mxPoint x="90" y="720" as="targetPoint" />
          </mxGeometry>
        </mxCell>
        <mxCell id="8xf4XGvSwWYVVuD-30Ni-30" value="i=i+1" style="rounded=0;whiteSpace=wrap;html=1;" vertex="1" parent="1">
          <mxGeometry x="260" y="690" width="120" height="60" as="geometry" />
        </mxCell>
        <mxCell id="8xf4XGvSwWYVVuD-30Ni-32" value="" style="endArrow=classic;html=1;rounded=0;" edge="1" parent="1">
          <mxGeometry width="50" height="50" relative="1" as="geometry">
            <mxPoint x="90" y="720" as="sourcePoint" />
            <mxPoint x="90" y="400" as="targetPoint" />
          </mxGeometry>
        </mxCell>
        <mxCell id="8xf4XGvSwWYVVuD-30Ni-33" value="" style="endArrow=classic;html=1;rounded=0;entryX=0;entryY=0.5;entryDx=0;entryDy=0;" edge="1" parent="1" target="8xf4XGvSwWYVVuD-30Ni-10">
          <mxGeometry width="50" height="50" relative="1" as="geometry">
            <mxPoint x="90" y="400" as="sourcePoint" />
            <mxPoint x="140" y="350" as="targetPoint" />
          </mxGeometry>
        </mxCell>
        <mxCell id="8xf4XGvSwWYVVuD-30Ni-34" value="false" style="text;html=1;align=center;verticalAlign=middle;resizable=0;points=[];autosize=1;strokeColor=none;fillColor=none;" vertex="1" parent="1">
          <mxGeometry x="340" y="380" width="50" height="30" as="geometry" />
        </mxCell>
        <mxCell id="8xf4XGvSwWYVVuD-30Ni-36" style="edgeStyle=orthogonalEdgeStyle;rounded=0;orthogonalLoop=1;jettySize=auto;html=1;" edge="1" parent="1" source="8xf4XGvSwWYVVuD-30Ni-35" target="8xf4XGvSwWYVVuD-30Ni-37">
          <mxGeometry relative="1" as="geometry">
            <mxPoint x="540" y="400" as="targetPoint" />
          </mxGeometry>
        </mxCell>
        <mxCell id="8xf4XGvSwWYVVuD-30Ni-35" value="write&lt;div&gt;c_d, c_p&lt;/div&gt;" style="shape=parallelogram;perimeter=parallelogramPerimeter;whiteSpace=wrap;html=1;fixedSize=1;" vertex="1" parent="1">
          <mxGeometry x="390" y="370" width="120" height="60" as="geometry" />
        </mxCell>
        <mxCell id="8xf4XGvSwWYVVuD-30Ni-37" value="end" style="ellipse;whiteSpace=wrap;html=1;" vertex="1" parent="1">
          <mxGeometry x="550" y="385" width="60" height="30" as="geometry" />
        </mxCell>
      </root>
    </mxGraphModel>
  </diagram>
  <diagram id="St8aSaFav2Wf7R-Ttaiw" name="Pagina-8">
    <mxGraphModel dx="712" dy="779" grid="1" gridSize="10" guides="1" tooltips="1" connect="1" arrows="1" fold="1" page="1" pageScale="1" pageWidth="827" pageHeight="1169" math="0" shadow="0">
      <root>
        <mxCell id="0" />
        <mxCell id="1" parent="0" />
        <mxCell id="QiKcaxLkupgXiB3x5YQf-2" style="edgeStyle=orthogonalEdgeStyle;rounded=0;orthogonalLoop=1;jettySize=auto;html=1;" edge="1" parent="1" source="QiKcaxLkupgXiB3x5YQf-1">
          <mxGeometry relative="1" as="geometry">
            <mxPoint x="290" y="130" as="targetPoint" />
          </mxGeometry>
        </mxCell>
        <mxCell id="QiKcaxLkupgXiB3x5YQf-1" value="start" style="ellipse;whiteSpace=wrap;html=1;" vertex="1" parent="1">
          <mxGeometry x="230" y="10" width="120" height="80" as="geometry" />
        </mxCell>
        <mxCell id="QiKcaxLkupgXiB3x5YQf-5" style="edgeStyle=orthogonalEdgeStyle;rounded=0;orthogonalLoop=1;jettySize=auto;html=1;exitX=0.5;exitY=1;exitDx=0;exitDy=0;" edge="1" parent="1" source="QiKcaxLkupgXiB3x5YQf-3">
          <mxGeometry relative="1" as="geometry">
            <mxPoint x="290" y="220" as="targetPoint" />
          </mxGeometry>
        </mxCell>
        <mxCell id="QiKcaxLkupgXiB3x5YQf-3" value="read&lt;div&gt;soglia&lt;/div&gt;" style="shape=parallelogram;perimeter=parallelogramPerimeter;whiteSpace=wrap;html=1;fixedSize=1;" vertex="1" parent="1">
          <mxGeometry x="230" y="130" width="120" height="60" as="geometry" />
        </mxCell>
        <mxCell id="QiKcaxLkupgXiB3x5YQf-7" style="edgeStyle=orthogonalEdgeStyle;rounded=0;orthogonalLoop=1;jettySize=auto;html=1;" edge="1" parent="1" source="QiKcaxLkupgXiB3x5YQf-6">
          <mxGeometry relative="1" as="geometry">
            <mxPoint x="280" y="330" as="targetPoint" />
          </mxGeometry>
        </mxCell>
        <mxCell id="QiKcaxLkupgXiB3x5YQf-6" value="i=0" style="shape=parallelogram;perimeter=parallelogramPerimeter;whiteSpace=wrap;html=1;fixedSize=1;" vertex="1" parent="1">
          <mxGeometry x="220" y="220" width="120" height="60" as="geometry" />
        </mxCell>
        <mxCell id="QiKcaxLkupgXiB3x5YQf-10" style="edgeStyle=orthogonalEdgeStyle;rounded=0;orthogonalLoop=1;jettySize=auto;html=1;" edge="1" parent="1" source="QiKcaxLkupgXiB3x5YQf-9">
          <mxGeometry relative="1" as="geometry">
            <mxPoint x="280" y="460" as="targetPoint" />
          </mxGeometry>
        </mxCell>
        <mxCell id="QiKcaxLkupgXiB3x5YQf-9" value="i&amp;lt;7" style="rhombus;whiteSpace=wrap;html=1;" vertex="1" parent="1">
          <mxGeometry x="240" y="330" width="80" height="80" as="geometry" />
        </mxCell>
        <mxCell id="QiKcaxLkupgXiB3x5YQf-11" value="true" style="text;html=1;align=center;verticalAlign=middle;resizable=0;points=[];autosize=1;strokeColor=none;fillColor=none;" vertex="1" parent="1">
          <mxGeometry x="280" y="418" width="40" height="30" as="geometry" />
        </mxCell>
        <mxCell id="QiKcaxLkupgXiB3x5YQf-13" style="edgeStyle=orthogonalEdgeStyle;rounded=0;orthogonalLoop=1;jettySize=auto;html=1;" edge="1" parent="1" source="QiKcaxLkupgXiB3x5YQf-12" target="QiKcaxLkupgXiB3x5YQf-14">
          <mxGeometry relative="1" as="geometry">
            <mxPoint x="280" y="560" as="targetPoint" />
          </mxGeometry>
        </mxCell>
        <mxCell id="QiKcaxLkupgXiB3x5YQf-12" value="read n" style="shape=parallelogram;perimeter=parallelogramPerimeter;whiteSpace=wrap;html=1;fixedSize=1;" vertex="1" parent="1">
          <mxGeometry x="220" y="460" width="120" height="60" as="geometry" />
        </mxCell>
        <mxCell id="QiKcaxLkupgXiB3x5YQf-15" style="edgeStyle=orthogonalEdgeStyle;rounded=0;orthogonalLoop=1;jettySize=auto;html=1;" edge="1" parent="1" source="QiKcaxLkupgXiB3x5YQf-14">
          <mxGeometry relative="1" as="geometry">
            <mxPoint x="370" y="585" as="targetPoint" />
          </mxGeometry>
        </mxCell>
        <mxCell id="QiKcaxLkupgXiB3x5YQf-19" style="edgeStyle=orthogonalEdgeStyle;rounded=0;orthogonalLoop=1;jettySize=auto;html=1;" edge="1" parent="1" source="QiKcaxLkupgXiB3x5YQf-14">
          <mxGeometry relative="1" as="geometry">
            <mxPoint x="280" y="740" as="targetPoint" />
          </mxGeometry>
        </mxCell>
        <mxCell id="QiKcaxLkupgXiB3x5YQf-14" value="n&amp;gt;soglia" style="rhombus;whiteSpace=wrap;html=1;" vertex="1" parent="1">
          <mxGeometry x="240" y="545" width="80" height="80" as="geometry" />
        </mxCell>
        <mxCell id="QiKcaxLkupgXiB3x5YQf-16" value="" style="endArrow=classic;html=1;rounded=0;" edge="1" parent="1" target="QiKcaxLkupgXiB3x5YQf-17">
          <mxGeometry width="50" height="50" relative="1" as="geometry">
            <mxPoint x="370" y="590" as="sourcePoint" />
            <mxPoint x="370" y="650" as="targetPoint" />
          </mxGeometry>
        </mxCell>
        <mxCell id="QiKcaxLkupgXiB3x5YQf-18" style="edgeStyle=orthogonalEdgeStyle;rounded=0;orthogonalLoop=1;jettySize=auto;html=1;" edge="1" parent="1" source="QiKcaxLkupgXiB3x5YQf-17">
          <mxGeometry relative="1" as="geometry">
            <mxPoint x="370" y="740" as="targetPoint" />
          </mxGeometry>
        </mxCell>
        <mxCell id="QiKcaxLkupgXiB3x5YQf-17" value="write&lt;div&gt;n&lt;/div&gt;" style="shape=parallelogram;perimeter=parallelogramPerimeter;whiteSpace=wrap;html=1;fixedSize=1;" vertex="1" parent="1">
          <mxGeometry x="310" y="620" width="120" height="60" as="geometry" />
        </mxCell>
        <mxCell id="QiKcaxLkupgXiB3x5YQf-20" value="true" style="text;html=1;align=center;verticalAlign=middle;resizable=0;points=[];autosize=1;strokeColor=none;fillColor=none;" vertex="1" parent="1">
          <mxGeometry x="310" y="558" width="40" height="30" as="geometry" />
        </mxCell>
        <mxCell id="QiKcaxLkupgXiB3x5YQf-22" value="false" style="text;html=1;align=center;verticalAlign=middle;resizable=0;points=[];autosize=1;strokeColor=none;fillColor=none;" vertex="1" parent="1">
          <mxGeometry x="245" y="628" width="50" height="30" as="geometry" />
        </mxCell>
        <mxCell id="QiKcaxLkupgXiB3x5YQf-23" value="" style="endArrow=classic;html=1;rounded=0;" edge="1" parent="1">
          <mxGeometry width="50" height="50" relative="1" as="geometry">
            <mxPoint x="280" y="740" as="sourcePoint" />
            <mxPoint x="320" y="740" as="targetPoint" />
          </mxGeometry>
        </mxCell>
        <mxCell id="QiKcaxLkupgXiB3x5YQf-24" value="" style="endArrow=classic;html=1;rounded=0;" edge="1" parent="1">
          <mxGeometry width="50" height="50" relative="1" as="geometry">
            <mxPoint x="370" y="740" as="sourcePoint" />
            <mxPoint x="340" y="740" as="targetPoint" />
          </mxGeometry>
        </mxCell>
        <mxCell id="QiKcaxLkupgXiB3x5YQf-25" value="" style="ellipse;whiteSpace=wrap;html=1;aspect=fixed;" vertex="1" parent="1">
          <mxGeometry x="320" y="730" width="20" height="20" as="geometry" />
        </mxCell>
        <mxCell id="QiKcaxLkupgXiB3x5YQf-26" value="" style="endArrow=classic;html=1;rounded=0;" edge="1" parent="1">
          <mxGeometry width="50" height="50" relative="1" as="geometry">
            <mxPoint x="330" y="750" as="sourcePoint" />
            <mxPoint x="330" y="790" as="targetPoint" />
          </mxGeometry>
        </mxCell>
        <mxCell id="QiKcaxLkupgXiB3x5YQf-27" value="" style="endArrow=classic;html=1;rounded=0;" edge="1" parent="1">
          <mxGeometry width="50" height="50" relative="1" as="geometry">
            <mxPoint x="330" y="790" as="sourcePoint" />
            <mxPoint x="160" y="790" as="targetPoint" />
          </mxGeometry>
        </mxCell>
        <mxCell id="QiKcaxLkupgXiB3x5YQf-29" value="" style="endArrow=classic;html=1;rounded=0;" edge="1" parent="1" target="QiKcaxLkupgXiB3x5YQf-30">
          <mxGeometry width="50" height="50" relative="1" as="geometry">
            <mxPoint x="160" y="790" as="sourcePoint" />
            <mxPoint x="160" y="720" as="targetPoint" />
          </mxGeometry>
        </mxCell>
        <mxCell id="QiKcaxLkupgXiB3x5YQf-31" style="edgeStyle=orthogonalEdgeStyle;rounded=0;orthogonalLoop=1;jettySize=auto;html=1;" edge="1" parent="1" source="QiKcaxLkupgXiB3x5YQf-30">
          <mxGeometry relative="1" as="geometry">
            <mxPoint x="160" y="380" as="targetPoint" />
          </mxGeometry>
        </mxCell>
        <mxCell id="QiKcaxLkupgXiB3x5YQf-30" value="i=i+1" style="rounded=0;whiteSpace=wrap;html=1;" vertex="1" parent="1">
          <mxGeometry x="100" y="690" width="120" height="60" as="geometry" />
        </mxCell>
        <mxCell id="QiKcaxLkupgXiB3x5YQf-32" value="" style="endArrow=classic;html=1;rounded=0;" edge="1" parent="1" target="QiKcaxLkupgXiB3x5YQf-9">
          <mxGeometry width="50" height="50" relative="1" as="geometry">
            <mxPoint x="160" y="380" as="sourcePoint" />
            <mxPoint x="210" y="330" as="targetPoint" />
          </mxGeometry>
        </mxCell>
        <mxCell id="QiKcaxLkupgXiB3x5YQf-33" value="" style="endArrow=classic;html=1;rounded=0;" edge="1" parent="1">
          <mxGeometry width="50" height="50" relative="1" as="geometry">
            <mxPoint x="320" y="370" as="sourcePoint" />
            <mxPoint x="390" y="370" as="targetPoint" />
          </mxGeometry>
        </mxCell>
        <mxCell id="QiKcaxLkupgXiB3x5YQf-34" value="false" style="text;html=1;align=center;verticalAlign=middle;resizable=0;points=[];autosize=1;strokeColor=none;fillColor=none;" vertex="1" parent="1">
          <mxGeometry x="310" y="330" width="50" height="30" as="geometry" />
        </mxCell>
        <mxCell id="QiKcaxLkupgXiB3x5YQf-35" value="end" style="ellipse;whiteSpace=wrap;html=1;" vertex="1" parent="1">
          <mxGeometry x="390" y="330" width="120" height="80" as="geometry" />
        </mxCell>
      </root>
    </mxGraphModel>
  </diagram>
  <diagram id="xwcRzg7UUlzL5i2NVF1C" name="Pagina-9">
    <mxGraphModel dx="712" dy="779" grid="1" gridSize="10" guides="1" tooltips="1" connect="1" arrows="1" fold="1" page="1" pageScale="1" pageWidth="827" pageHeight="1169" math="0" shadow="0">
      <root>
        <mxCell id="0" />
        <mxCell id="1" parent="0" />
        <mxCell id="NOP0-IbXwfl1-EOovDzo-2" style="edgeStyle=orthogonalEdgeStyle;rounded=0;orthogonalLoop=1;jettySize=auto;html=1;" edge="1" parent="1" source="NOP0-IbXwfl1-EOovDzo-1" target="NOP0-IbXwfl1-EOovDzo-3">
          <mxGeometry relative="1" as="geometry">
            <mxPoint x="340" y="110" as="targetPoint" />
          </mxGeometry>
        </mxCell>
        <mxCell id="NOP0-IbXwfl1-EOovDzo-1" value="start" style="ellipse;whiteSpace=wrap;html=1;" vertex="1" parent="1">
          <mxGeometry x="280" width="120" height="80" as="geometry" />
        </mxCell>
        <mxCell id="NOP0-IbXwfl1-EOovDzo-5" style="edgeStyle=orthogonalEdgeStyle;rounded=0;orthogonalLoop=1;jettySize=auto;html=1;" edge="1" parent="1" source="NOP0-IbXwfl1-EOovDzo-3">
          <mxGeometry relative="1" as="geometry">
            <mxPoint x="342.5" y="350" as="targetPoint" />
          </mxGeometry>
        </mxCell>
        <mxCell id="NOP0-IbXwfl1-EOovDzo-3" value="max_v=vendita,&lt;div&gt;min_v=vendita,&lt;/div&gt;&lt;div&gt;max_nome=nome,&lt;/div&gt;&lt;div&gt;min_nome=nome,&lt;/div&gt;&lt;div&gt;i=0&lt;/div&gt;" style="rounded=0;whiteSpace=wrap;html=1;" vertex="1" parent="1">
          <mxGeometry x="230" y="220" width="225" height="80" as="geometry" />
        </mxCell>
        <mxCell id="NOP0-IbXwfl1-EOovDzo-4" value="read&amp;nbsp;&lt;div&gt;nome, vendita&lt;/div&gt;" style="shape=parallelogram;perimeter=parallelogramPerimeter;whiteSpace=wrap;html=1;fixedSize=1;" vertex="1" parent="1">
          <mxGeometry x="280" y="110" width="120" height="60" as="geometry" />
        </mxCell>
        <mxCell id="jUbAEA1vOdkrFlQY63dR-2" style="edgeStyle=orthogonalEdgeStyle;rounded=0;orthogonalLoop=1;jettySize=auto;html=1;" edge="1" parent="1" source="jUbAEA1vOdkrFlQY63dR-1">
          <mxGeometry relative="1" as="geometry">
            <mxPoint x="343" y="480" as="targetPoint" />
          </mxGeometry>
        </mxCell>
        <mxCell id="jUbAEA1vOdkrFlQY63dR-1" value="i&amp;lt;20" style="rhombus;whiteSpace=wrap;html=1;" vertex="1" parent="1">
          <mxGeometry x="303" y="350" width="80" height="80" as="geometry" />
        </mxCell>
        <mxCell id="jUbAEA1vOdkrFlQY63dR-3" value="true" style="text;html=1;align=center;verticalAlign=middle;resizable=0;points=[];autosize=1;strokeColor=none;fillColor=none;" vertex="1" parent="1">
          <mxGeometry x="340" y="440" width="40" height="30" as="geometry" />
        </mxCell>
        <mxCell id="jUbAEA1vOdkrFlQY63dR-5" style="edgeStyle=orthogonalEdgeStyle;rounded=0;orthogonalLoop=1;jettySize=auto;html=1;" edge="1" parent="1" source="jUbAEA1vOdkrFlQY63dR-4">
          <mxGeometry relative="1" as="geometry">
            <mxPoint x="340" y="580" as="targetPoint" />
          </mxGeometry>
        </mxCell>
        <mxCell id="jUbAEA1vOdkrFlQY63dR-4" value="read&amp;nbsp;&lt;div&gt;nome, vendita&lt;/div&gt;" style="shape=parallelogram;perimeter=parallelogramPerimeter;whiteSpace=wrap;html=1;fixedSize=1;" vertex="1" parent="1">
          <mxGeometry x="280" y="480" width="120" height="60" as="geometry" />
        </mxCell>
        <mxCell id="jUbAEA1vOdkrFlQY63dR-7" style="edgeStyle=orthogonalEdgeStyle;rounded=0;orthogonalLoop=1;jettySize=auto;html=1;" edge="1" parent="1" source="jUbAEA1vOdkrFlQY63dR-6">
          <mxGeometry relative="1" as="geometry">
            <mxPoint x="480" y="630" as="targetPoint" />
          </mxGeometry>
        </mxCell>
        <mxCell id="jUbAEA1vOdkrFlQY63dR-9" style="edgeStyle=orthogonalEdgeStyle;rounded=0;orthogonalLoop=1;jettySize=auto;html=1;" edge="1" parent="1" source="jUbAEA1vOdkrFlQY63dR-6">
          <mxGeometry relative="1" as="geometry">
            <mxPoint x="200" y="630" as="targetPoint" />
          </mxGeometry>
        </mxCell>
        <mxCell id="jUbAEA1vOdkrFlQY63dR-6" value="vendita&amp;gt;max_vendita" style="rhombus;whiteSpace=wrap;html=1;" vertex="1" parent="1">
          <mxGeometry x="285" y="585" width="125" height="105" as="geometry" />
        </mxCell>
        <mxCell id="jUbAEA1vOdkrFlQY63dR-8" value="true" style="text;html=1;align=center;verticalAlign=middle;resizable=0;points=[];autosize=1;strokeColor=none;fillColor=none;" vertex="1" parent="1">
          <mxGeometry x="400" y="598" width="40" height="30" as="geometry" />
        </mxCell>
        <mxCell id="jUbAEA1vOdkrFlQY63dR-10" value="false" style="text;html=1;align=center;verticalAlign=middle;resizable=0;points=[];autosize=1;strokeColor=none;fillColor=none;" vertex="1" parent="1">
          <mxGeometry x="230" y="598" width="50" height="30" as="geometry" />
        </mxCell>
        <mxCell id="jUbAEA1vOdkrFlQY63dR-11" value="" style="endArrow=classic;html=1;rounded=0;" edge="1" parent="1">
          <mxGeometry width="50" height="50" relative="1" as="geometry">
            <mxPoint x="480" y="628" as="sourcePoint" />
            <mxPoint x="480" y="670" as="targetPoint" />
          </mxGeometry>
        </mxCell>
        <mxCell id="jUbAEA1vOdkrFlQY63dR-13" style="edgeStyle=orthogonalEdgeStyle;rounded=0;orthogonalLoop=1;jettySize=auto;html=1;" edge="1" parent="1" source="jUbAEA1vOdkrFlQY63dR-12">
          <mxGeometry relative="1" as="geometry">
            <mxPoint x="477" y="750" as="targetPoint" />
          </mxGeometry>
        </mxCell>
        <mxCell id="jUbAEA1vOdkrFlQY63dR-12" value="max_nome=nome" style="rounded=0;whiteSpace=wrap;html=1;" vertex="1" parent="1">
          <mxGeometry x="420" y="670" width="114" height="40" as="geometry" />
        </mxCell>
        <mxCell id="jUbAEA1vOdkrFlQY63dR-15" style="edgeStyle=orthogonalEdgeStyle;rounded=0;orthogonalLoop=1;jettySize=auto;html=1;" edge="1" parent="1" source="jUbAEA1vOdkrFlQY63dR-14">
          <mxGeometry relative="1" as="geometry">
            <mxPoint x="479" y="1020" as="targetPoint" />
          </mxGeometry>
        </mxCell>
        <mxCell id="jUbAEA1vOdkrFlQY63dR-14" value="max_v = vendita" style="rounded=0;whiteSpace=wrap;html=1;" vertex="1" parent="1">
          <mxGeometry x="420" y="750" width="117" height="30" as="geometry" />
        </mxCell>
        <mxCell id="jUbAEA1vOdkrFlQY63dR-16" value="" style="endArrow=classic;html=1;rounded=0;" edge="1" parent="1">
          <mxGeometry width="50" height="50" relative="1" as="geometry">
            <mxPoint x="200" y="628" as="sourcePoint" />
            <mxPoint x="200" y="680" as="targetPoint" />
          </mxGeometry>
        </mxCell>
        <mxCell id="jUbAEA1vOdkrFlQY63dR-20" style="edgeStyle=orthogonalEdgeStyle;rounded=0;orthogonalLoop=1;jettySize=auto;html=1;" edge="1" parent="1" source="jUbAEA1vOdkrFlQY63dR-17">
          <mxGeometry relative="1" as="geometry">
            <mxPoint x="300" y="740" as="targetPoint" />
          </mxGeometry>
        </mxCell>
        <mxCell id="jUbAEA1vOdkrFlQY63dR-26" style="edgeStyle=orthogonalEdgeStyle;rounded=0;orthogonalLoop=1;jettySize=auto;html=1;exitX=0.5;exitY=1;exitDx=0;exitDy=0;" edge="1" parent="1" source="jUbAEA1vOdkrFlQY63dR-17">
          <mxGeometry relative="1" as="geometry">
            <mxPoint x="200" y="1020" as="targetPoint" />
          </mxGeometry>
        </mxCell>
        <mxCell id="jUbAEA1vOdkrFlQY63dR-17" value="vendita&amp;lt;min_vendita" style="rhombus;whiteSpace=wrap;html=1;" vertex="1" parent="1">
          <mxGeometry x="140" y="680" width="120" height="120" as="geometry" />
        </mxCell>
        <mxCell id="jUbAEA1vOdkrFlQY63dR-21" value="" style="endArrow=classic;html=1;rounded=0;" edge="1" parent="1" target="jUbAEA1vOdkrFlQY63dR-22">
          <mxGeometry width="50" height="50" relative="1" as="geometry">
            <mxPoint x="303" y="740" as="sourcePoint" />
            <mxPoint x="303" y="830" as="targetPoint" />
          </mxGeometry>
        </mxCell>
        <mxCell id="jUbAEA1vOdkrFlQY63dR-23" style="edgeStyle=orthogonalEdgeStyle;rounded=0;orthogonalLoop=1;jettySize=auto;html=1;" edge="1" parent="1" source="jUbAEA1vOdkrFlQY63dR-22" target="jUbAEA1vOdkrFlQY63dR-24">
          <mxGeometry relative="1" as="geometry">
            <mxPoint x="303" y="900" as="targetPoint" />
          </mxGeometry>
        </mxCell>
        <mxCell id="jUbAEA1vOdkrFlQY63dR-22" value="min_nome=nome" style="rounded=0;whiteSpace=wrap;html=1;" vertex="1" parent="1">
          <mxGeometry x="243" y="800" width="120" height="60" as="geometry" />
        </mxCell>
        <mxCell id="jUbAEA1vOdkrFlQY63dR-28" style="edgeStyle=orthogonalEdgeStyle;rounded=0;orthogonalLoop=1;jettySize=auto;html=1;exitX=0.5;exitY=1;exitDx=0;exitDy=0;" edge="1" parent="1" source="jUbAEA1vOdkrFlQY63dR-24">
          <mxGeometry relative="1" as="geometry">
            <mxPoint x="303" y="1010" as="targetPoint" />
          </mxGeometry>
        </mxCell>
        <mxCell id="jUbAEA1vOdkrFlQY63dR-24" value="min_v=vendita" style="rounded=0;whiteSpace=wrap;html=1;" vertex="1" parent="1">
          <mxGeometry x="243" y="890" width="120" height="60" as="geometry" />
        </mxCell>
        <mxCell id="jUbAEA1vOdkrFlQY63dR-25" value="true" style="text;html=1;align=center;verticalAlign=middle;resizable=0;points=[];autosize=1;strokeColor=none;fillColor=none;" vertex="1" parent="1">
          <mxGeometry x="250" y="708" width="40" height="30" as="geometry" />
        </mxCell>
        <mxCell id="jUbAEA1vOdkrFlQY63dR-27" value="false" style="text;html=1;align=center;verticalAlign=middle;resizable=0;points=[];autosize=1;strokeColor=none;fillColor=none;" vertex="1" parent="1">
          <mxGeometry x="155" y="788" width="50" height="30" as="geometry" />
        </mxCell>
        <mxCell id="jUbAEA1vOdkrFlQY63dR-33" style="edgeStyle=orthogonalEdgeStyle;rounded=0;orthogonalLoop=1;jettySize=auto;html=1;exitX=0.5;exitY=1;exitDx=0;exitDy=0;" edge="1" parent="1" source="jUbAEA1vOdkrFlQY63dR-30">
          <mxGeometry relative="1" as="geometry">
            <mxPoint x="303" y="1060" as="targetPoint" />
          </mxGeometry>
        </mxCell>
        <mxCell id="jUbAEA1vOdkrFlQY63dR-30" value="" style="ellipse;whiteSpace=wrap;html=1;aspect=fixed;" vertex="1" parent="1">
          <mxGeometry x="293" y="1010" width="20" height="20" as="geometry" />
        </mxCell>
        <mxCell id="jUbAEA1vOdkrFlQY63dR-31" value="" style="endArrow=classic;html=1;rounded=0;" edge="1" parent="1">
          <mxGeometry width="50" height="50" relative="1" as="geometry">
            <mxPoint x="200" y="1020" as="sourcePoint" />
            <mxPoint x="290" y="1020" as="targetPoint" />
          </mxGeometry>
        </mxCell>
        <mxCell id="jUbAEA1vOdkrFlQY63dR-32" value="" style="endArrow=classic;html=1;rounded=0;entryX=1;entryY=0.5;entryDx=0;entryDy=0;" edge="1" parent="1" target="jUbAEA1vOdkrFlQY63dR-30">
          <mxGeometry width="50" height="50" relative="1" as="geometry">
            <mxPoint x="470" y="1020" as="sourcePoint" />
            <mxPoint x="520" y="970" as="targetPoint" />
          </mxGeometry>
        </mxCell>
        <mxCell id="jUbAEA1vOdkrFlQY63dR-35" style="edgeStyle=orthogonalEdgeStyle;rounded=0;orthogonalLoop=1;jettySize=auto;html=1;" edge="1" parent="1" source="jUbAEA1vOdkrFlQY63dR-34">
          <mxGeometry relative="1" as="geometry">
            <mxPoint x="70" y="1090" as="targetPoint" />
          </mxGeometry>
        </mxCell>
        <mxCell id="jUbAEA1vOdkrFlQY63dR-34" value="i=i+1" style="rounded=0;whiteSpace=wrap;html=1;" vertex="1" parent="1">
          <mxGeometry x="240" y="1060" width="120" height="60" as="geometry" />
        </mxCell>
        <mxCell id="jUbAEA1vOdkrFlQY63dR-36" value="" style="endArrow=classic;html=1;rounded=0;" edge="1" parent="1">
          <mxGeometry width="50" height="50" relative="1" as="geometry">
            <mxPoint x="70" y="1090" as="sourcePoint" />
            <mxPoint x="70" y="390" as="targetPoint" />
          </mxGeometry>
        </mxCell>
        <mxCell id="jUbAEA1vOdkrFlQY63dR-38" value="" style="endArrow=classic;html=1;rounded=0;" edge="1" parent="1">
          <mxGeometry width="50" height="50" relative="1" as="geometry">
            <mxPoint x="70" y="390" as="sourcePoint" />
            <mxPoint x="300" y="390" as="targetPoint" />
          </mxGeometry>
        </mxCell>
        <mxCell id="jUbAEA1vOdkrFlQY63dR-39" value="" style="endArrow=classic;html=1;rounded=0;" edge="1" parent="1">
          <mxGeometry width="50" height="50" relative="1" as="geometry">
            <mxPoint x="383" y="390" as="sourcePoint" />
            <mxPoint x="480" y="390" as="targetPoint" />
          </mxGeometry>
        </mxCell>
        <mxCell id="jUbAEA1vOdkrFlQY63dR-41" style="edgeStyle=orthogonalEdgeStyle;rounded=0;orthogonalLoop=1;jettySize=auto;html=1;" edge="1" parent="1" source="jUbAEA1vOdkrFlQY63dR-40" target="jUbAEA1vOdkrFlQY63dR-42">
          <mxGeometry relative="1" as="geometry">
            <mxPoint x="680" y="400" as="targetPoint" />
          </mxGeometry>
        </mxCell>
        <mxCell id="jUbAEA1vOdkrFlQY63dR-40" value="write&lt;div&gt;max_nome, max_v&lt;/div&gt;" style="shape=parallelogram;perimeter=parallelogramPerimeter;whiteSpace=wrap;html=1;fixedSize=1;" vertex="1" parent="1">
          <mxGeometry x="470" y="360" width="170" height="80" as="geometry" />
        </mxCell>
        <mxCell id="jUbAEA1vOdkrFlQY63dR-42" value="write&amp;nbsp;&lt;div&gt;min_nome, min_v&lt;/div&gt;" style="shape=parallelogram;perimeter=parallelogramPerimeter;whiteSpace=wrap;html=1;fixedSize=1;" vertex="1" parent="1">
          <mxGeometry x="667" y="360" width="160" height="80" as="geometry" />
        </mxCell>
        <mxCell id="jUbAEA1vOdkrFlQY63dR-43" value="" style="endArrow=classic;html=1;rounded=0;" edge="1" parent="1">
          <mxGeometry width="50" height="50" relative="1" as="geometry">
            <mxPoint x="740" y="440" as="sourcePoint" />
            <mxPoint x="740" y="490" as="targetPoint" />
          </mxGeometry>
        </mxCell>
        <mxCell id="jUbAEA1vOdkrFlQY63dR-44" value="end" style="ellipse;whiteSpace=wrap;html=1;" vertex="1" parent="1">
          <mxGeometry x="680" y="490" width="120" height="80" as="geometry" />
        </mxCell>
      </root>
    </mxGraphModel>
  </diagram>
  <diagram id="frNrbGEpkDUm3YpWPfsB" name="Pagina-10">
    <mxGraphModel dx="712" dy="779" grid="1" gridSize="10" guides="1" tooltips="1" connect="1" arrows="1" fold="1" page="1" pageScale="1" pageWidth="827" pageHeight="1169" math="0" shadow="0">
      <root>
        <mxCell id="0" />
        <mxCell id="1" parent="0" />
        <mxCell id="yAKtnyfgETTsHaEw7gYl-2" style="edgeStyle=orthogonalEdgeStyle;rounded=0;orthogonalLoop=1;jettySize=auto;html=1;" edge="1" parent="1" source="yAKtnyfgETTsHaEw7gYl-1">
          <mxGeometry relative="1" as="geometry">
            <mxPoint x="320" y="140" as="targetPoint" />
          </mxGeometry>
        </mxCell>
        <mxCell id="yAKtnyfgETTsHaEw7gYl-1" value="start" style="ellipse;whiteSpace=wrap;html=1;" vertex="1" parent="1">
          <mxGeometry x="260" y="20" width="120" height="80" as="geometry" />
        </mxCell>
        <mxCell id="yAKtnyfgETTsHaEw7gYl-4" style="edgeStyle=orthogonalEdgeStyle;rounded=0;orthogonalLoop=1;jettySize=auto;html=1;" edge="1" parent="1" source="yAKtnyfgETTsHaEw7gYl-3">
          <mxGeometry relative="1" as="geometry">
            <mxPoint x="310" y="230" as="targetPoint" />
          </mxGeometry>
        </mxCell>
        <mxCell id="yAKtnyfgETTsHaEw7gYl-3" value="read&lt;div&gt;reddito&lt;/div&gt;" style="shape=parallelogram;perimeter=parallelogramPerimeter;whiteSpace=wrap;html=1;fixedSize=1;" vertex="1" parent="1">
          <mxGeometry x="250" y="140" width="120" height="60" as="geometry" />
        </mxCell>
        <mxCell id="yAKtnyfgETTsHaEw7gYl-6" style="edgeStyle=orthogonalEdgeStyle;rounded=0;orthogonalLoop=1;jettySize=auto;html=1;" edge="1" parent="1" source="yAKtnyfgETTsHaEw7gYl-5">
          <mxGeometry relative="1" as="geometry">
            <mxPoint x="300" y="330" as="targetPoint" />
          </mxGeometry>
        </mxCell>
        <mxCell id="yAKtnyfgETTsHaEw7gYl-5" value="read&lt;div&gt;media&lt;/div&gt;" style="shape=parallelogram;perimeter=parallelogramPerimeter;whiteSpace=wrap;html=1;fixedSize=1;" vertex="1" parent="1">
          <mxGeometry x="240" y="230" width="120" height="60" as="geometry" />
        </mxCell>
        <mxCell id="yAKtnyfgETTsHaEw7gYl-8" style="edgeStyle=orthogonalEdgeStyle;rounded=0;orthogonalLoop=1;jettySize=auto;html=1;" edge="1" parent="1" source="yAKtnyfgETTsHaEw7gYl-7">
          <mxGeometry relative="1" as="geometry">
            <mxPoint x="510" y="385" as="targetPoint" />
          </mxGeometry>
        </mxCell>
        <mxCell id="yAKtnyfgETTsHaEw7gYl-9" style="edgeStyle=orthogonalEdgeStyle;rounded=0;orthogonalLoop=1;jettySize=auto;html=1;" edge="1" parent="1" source="yAKtnyfgETTsHaEw7gYl-7">
          <mxGeometry relative="1" as="geometry">
            <mxPoint x="100" y="385" as="targetPoint" />
          </mxGeometry>
        </mxCell>
        <mxCell id="yAKtnyfgETTsHaEw7gYl-7" value="reddito&amp;lt;20000&lt;div&gt;AND&lt;/div&gt;&lt;div&gt;media&amp;gt;27&lt;/div&gt;" style="rhombus;whiteSpace=wrap;html=1;" vertex="1" parent="1">
          <mxGeometry x="200" y="330" width="200" height="110" as="geometry" />
        </mxCell>
        <mxCell id="yAKtnyfgETTsHaEw7gYl-10" value="true" style="text;html=1;align=center;verticalAlign=middle;resizable=0;points=[];autosize=1;strokeColor=none;fillColor=none;" vertex="1" parent="1">
          <mxGeometry x="160" y="350" width="40" height="30" as="geometry" />
        </mxCell>
        <mxCell id="yAKtnyfgETTsHaEw7gYl-11" value="" style="endArrow=classic;html=1;rounded=0;" edge="1" parent="1">
          <mxGeometry width="50" height="50" relative="1" as="geometry">
            <mxPoint x="100" y="388" as="sourcePoint" />
            <mxPoint x="100" y="440" as="targetPoint" />
          </mxGeometry>
        </mxCell>
        <mxCell id="yAKtnyfgETTsHaEw7gYl-13" style="edgeStyle=orthogonalEdgeStyle;rounded=0;orthogonalLoop=1;jettySize=auto;html=1;" edge="1" parent="1" source="yAKtnyfgETTsHaEw7gYl-12">
          <mxGeometry relative="1" as="geometry">
            <mxPoint x="100" y="560" as="targetPoint" />
          </mxGeometry>
        </mxCell>
        <mxCell id="yAKtnyfgETTsHaEw7gYl-12" value="write&lt;div&gt;&quot;Borsa di studio approvata&quot;&lt;/div&gt;" style="shape=parallelogram;perimeter=parallelogramPerimeter;whiteSpace=wrap;html=1;fixedSize=1;" vertex="1" parent="1">
          <mxGeometry x="40" y="440" width="120" height="60" as="geometry" />
        </mxCell>
        <mxCell id="yAKtnyfgETTsHaEw7gYl-14" value="" style="endArrow=classic;html=1;rounded=0;" edge="1" parent="1">
          <mxGeometry width="50" height="50" relative="1" as="geometry">
            <mxPoint x="510" y="390" as="sourcePoint" />
            <mxPoint x="510" y="440" as="targetPoint" />
          </mxGeometry>
        </mxCell>
        <mxCell id="yAKtnyfgETTsHaEw7gYl-15" value="false" style="text;html=1;align=center;verticalAlign=middle;resizable=0;points=[];autosize=1;strokeColor=none;fillColor=none;" vertex="1" parent="1">
          <mxGeometry x="389" y="350" width="50" height="30" as="geometry" />
        </mxCell>
        <mxCell id="yAKtnyfgETTsHaEw7gYl-17" style="edgeStyle=orthogonalEdgeStyle;rounded=0;orthogonalLoop=1;jettySize=auto;html=1;" edge="1" parent="1" source="yAKtnyfgETTsHaEw7gYl-16">
          <mxGeometry relative="1" as="geometry">
            <mxPoint x="510" y="560" as="targetPoint" />
          </mxGeometry>
        </mxCell>
        <mxCell id="yAKtnyfgETTsHaEw7gYl-16" value="write&amp;nbsp;&lt;div&gt;&quot;Borsa di studio rifiutata.&lt;/div&gt;&lt;div&gt;Motivo: reddito o media insufficiente&quot;&lt;/div&gt;" style="shape=parallelogram;perimeter=parallelogramPerimeter;whiteSpace=wrap;html=1;fixedSize=1;" vertex="1" parent="1">
          <mxGeometry x="430" y="440" width="161" height="80" as="geometry" />
        </mxCell>
        <mxCell id="yAKtnyfgETTsHaEw7gYl-18" value="" style="endArrow=classic;html=1;rounded=0;" edge="1" parent="1">
          <mxGeometry width="50" height="50" relative="1" as="geometry">
            <mxPoint x="100" y="560" as="sourcePoint" />
            <mxPoint x="290" y="560" as="targetPoint" />
          </mxGeometry>
        </mxCell>
        <mxCell id="yAKtnyfgETTsHaEw7gYl-19" value="" style="endArrow=classic;html=1;rounded=0;" edge="1" parent="1">
          <mxGeometry width="50" height="50" relative="1" as="geometry">
            <mxPoint x="510" y="560" as="sourcePoint" />
            <mxPoint x="310" y="560" as="targetPoint" />
          </mxGeometry>
        </mxCell>
        <mxCell id="yAKtnyfgETTsHaEw7gYl-21" style="edgeStyle=orthogonalEdgeStyle;rounded=0;orthogonalLoop=1;jettySize=auto;html=1;" edge="1" parent="1" source="yAKtnyfgETTsHaEw7gYl-20" target="yAKtnyfgETTsHaEw7gYl-22">
          <mxGeometry relative="1" as="geometry">
            <mxPoint x="300" y="620" as="targetPoint" />
          </mxGeometry>
        </mxCell>
        <mxCell id="yAKtnyfgETTsHaEw7gYl-20" value="" style="ellipse;whiteSpace=wrap;html=1;aspect=fixed;" vertex="1" parent="1">
          <mxGeometry x="287.5" y="550" width="25" height="25" as="geometry" />
        </mxCell>
        <mxCell id="yAKtnyfgETTsHaEw7gYl-22" value="end" style="ellipse;whiteSpace=wrap;html=1;" vertex="1" parent="1">
          <mxGeometry x="240" y="610" width="120" height="80" as="geometry" />
        </mxCell>
      </root>
    </mxGraphModel>
  </diagram>
  <diagram id="DoPVxsr3TU40Bym830qR" name="Pagina-11">
    <mxGraphModel dx="1424" dy="1558" grid="1" gridSize="10" guides="1" tooltips="1" connect="1" arrows="1" fold="1" page="1" pageScale="1" pageWidth="827" pageHeight="1169" math="0" shadow="0">
      <root>
        <mxCell id="0" />
        <mxCell id="1" parent="0" />
        <mxCell id="4Mo3WPmvzlWyDM1ACkRA-2" style="edgeStyle=orthogonalEdgeStyle;rounded=0;orthogonalLoop=1;jettySize=auto;html=1;" edge="1" parent="1" source="4Mo3WPmvzlWyDM1ACkRA-1">
          <mxGeometry relative="1" as="geometry">
            <mxPoint x="320" y="440" as="targetPoint" />
          </mxGeometry>
        </mxCell>
        <mxCell id="4Mo3WPmvzlWyDM1ACkRA-1" value="start" style="ellipse;whiteSpace=wrap;html=1;" vertex="1" parent="1">
          <mxGeometry x="260" y="320" width="120" height="80" as="geometry" />
        </mxCell>
        <mxCell id="4Mo3WPmvzlWyDM1ACkRA-4" style="edgeStyle=orthogonalEdgeStyle;rounded=0;orthogonalLoop=1;jettySize=auto;html=1;" edge="1" parent="1" source="4Mo3WPmvzlWyDM1ACkRA-3">
          <mxGeometry relative="1" as="geometry">
            <mxPoint x="320" y="540" as="targetPoint" />
          </mxGeometry>
        </mxCell>
        <mxCell id="4Mo3WPmvzlWyDM1ACkRA-3" value="posti_L= 50" style="rounded=0;whiteSpace=wrap;html=1;" vertex="1" parent="1">
          <mxGeometry x="260" y="440" width="120" height="60" as="geometry" />
        </mxCell>
        <mxCell id="4Mo3WPmvzlWyDM1ACkRA-6" style="edgeStyle=orthogonalEdgeStyle;rounded=0;orthogonalLoop=1;jettySize=auto;html=1;" edge="1" parent="1" source="4Mo3WPmvzlWyDM1ACkRA-5">
          <mxGeometry relative="1" as="geometry">
            <mxPoint x="310" y="650" as="targetPoint" />
          </mxGeometry>
        </mxCell>
        <mxCell id="4Mo3WPmvzlWyDM1ACkRA-5" value="read&lt;div&gt;scelta&lt;/div&gt;" style="shape=parallelogram;perimeter=parallelogramPerimeter;whiteSpace=wrap;html=1;fixedSize=1;" vertex="1" parent="1">
          <mxGeometry x="250" y="540" width="120" height="60" as="geometry" />
        </mxCell>
        <mxCell id="4Mo3WPmvzlWyDM1ACkRA-8" style="edgeStyle=orthogonalEdgeStyle;rounded=0;orthogonalLoop=1;jettySize=auto;html=1;" edge="1" parent="1" source="4Mo3WPmvzlWyDM1ACkRA-7">
          <mxGeometry relative="1" as="geometry">
            <mxPoint x="470" y="700" as="targetPoint" />
          </mxGeometry>
        </mxCell>
        <mxCell id="4Mo3WPmvzlWyDM1ACkRA-10" style="edgeStyle=orthogonalEdgeStyle;rounded=0;orthogonalLoop=1;jettySize=auto;html=1;" edge="1" parent="1" source="4Mo3WPmvzlWyDM1ACkRA-7">
          <mxGeometry relative="1" as="geometry">
            <mxPoint x="310" y="900" as="targetPoint" />
          </mxGeometry>
        </mxCell>
        <mxCell id="4Mo3WPmvzlWyDM1ACkRA-7" value="scelta==&quot;prenota&quot;" style="rhombus;whiteSpace=wrap;html=1;" vertex="1" parent="1">
          <mxGeometry x="235" y="650" width="150" height="100" as="geometry" />
        </mxCell>
        <mxCell id="4Mo3WPmvzlWyDM1ACkRA-9" value="true" style="text;html=1;align=center;verticalAlign=middle;resizable=0;points=[];autosize=1;strokeColor=none;fillColor=none;" vertex="1" parent="1">
          <mxGeometry x="380" y="680" width="40" height="30" as="geometry" />
        </mxCell>
        <mxCell id="4Mo3WPmvzlWyDM1ACkRA-12" style="edgeStyle=orthogonalEdgeStyle;rounded=0;orthogonalLoop=1;jettySize=auto;html=1;" edge="1" parent="1" source="4Mo3WPmvzlWyDM1ACkRA-11">
          <mxGeometry relative="1" as="geometry">
            <mxPoint x="310" y="1130" as="targetPoint" />
          </mxGeometry>
        </mxCell>
        <mxCell id="4Mo3WPmvzlWyDM1ACkRA-16" style="edgeStyle=orthogonalEdgeStyle;rounded=0;orthogonalLoop=1;jettySize=auto;html=1;exitX=1;exitY=0.5;exitDx=0;exitDy=0;" edge="1" parent="1" source="4Mo3WPmvzlWyDM1ACkRA-11">
          <mxGeometry relative="1" as="geometry">
            <mxPoint x="470" y="940" as="targetPoint" />
          </mxGeometry>
        </mxCell>
        <mxCell id="4Mo3WPmvzlWyDM1ACkRA-11" value="scelta==&quot;libera&quot;" style="rhombus;whiteSpace=wrap;html=1;" vertex="1" parent="1">
          <mxGeometry x="235" y="900" width="150" height="80" as="geometry" />
        </mxCell>
        <mxCell id="4Mo3WPmvzlWyDM1ACkRA-14" style="edgeStyle=orthogonalEdgeStyle;rounded=0;orthogonalLoop=1;jettySize=auto;html=1;" edge="1" parent="1" source="4Mo3WPmvzlWyDM1ACkRA-13">
          <mxGeometry relative="1" as="geometry">
            <mxPoint x="310" y="1290" as="targetPoint" />
          </mxGeometry>
        </mxCell>
        <mxCell id="4Mo3WPmvzlWyDM1ACkRA-50" style="edgeStyle=orthogonalEdgeStyle;rounded=0;orthogonalLoop=1;jettySize=auto;html=1;exitX=1;exitY=0.5;exitDx=0;exitDy=0;entryX=0;entryY=0.5;entryDx=0;entryDy=0;" edge="1" parent="1" source="4Mo3WPmvzlWyDM1ACkRA-13" target="4Mo3WPmvzlWyDM1ACkRA-48">
          <mxGeometry relative="1" as="geometry" />
        </mxCell>
        <mxCell id="4Mo3WPmvzlWyDM1ACkRA-13" value="scelta==&quot;visualizza&quot;" style="rhombus;whiteSpace=wrap;html=1;" vertex="1" parent="1">
          <mxGeometry x="230" y="1130" width="160" height="80" as="geometry" />
        </mxCell>
        <mxCell id="4Mo3WPmvzlWyDM1ACkRA-23" style="edgeStyle=orthogonalEdgeStyle;rounded=0;orthogonalLoop=1;jettySize=auto;html=1;" edge="1" parent="1" source="4Mo3WPmvzlWyDM1ACkRA-15">
          <mxGeometry relative="1" as="geometry">
            <mxPoint x="310" y="1440" as="targetPoint" />
          </mxGeometry>
        </mxCell>
        <mxCell id="4Mo3WPmvzlWyDM1ACkRA-25" style="edgeStyle=orthogonalEdgeStyle;rounded=0;orthogonalLoop=1;jettySize=auto;html=1;exitX=1;exitY=0.5;exitDx=0;exitDy=0;" edge="1" parent="1" source="4Mo3WPmvzlWyDM1ACkRA-15">
          <mxGeometry relative="1" as="geometry">
            <mxPoint x="830" y="1330" as="targetPoint" />
          </mxGeometry>
        </mxCell>
        <mxCell id="4Mo3WPmvzlWyDM1ACkRA-15" value="scelta==&quot;esci&quot;" style="rhombus;whiteSpace=wrap;html=1;" vertex="1" parent="1">
          <mxGeometry x="235" y="1290" width="150" height="80" as="geometry" />
        </mxCell>
        <mxCell id="4Mo3WPmvzlWyDM1ACkRA-17" value="true" style="text;html=1;align=center;verticalAlign=middle;resizable=0;points=[];autosize=1;strokeColor=none;fillColor=none;" vertex="1" parent="1">
          <mxGeometry x="410" y="908" width="40" height="30" as="geometry" />
        </mxCell>
        <mxCell id="4Mo3WPmvzlWyDM1ACkRA-18" value="false" style="text;html=1;align=center;verticalAlign=middle;resizable=0;points=[];autosize=1;strokeColor=none;fillColor=none;" vertex="1" parent="1">
          <mxGeometry x="265" y="748" width="50" height="30" as="geometry" />
        </mxCell>
        <mxCell id="4Mo3WPmvzlWyDM1ACkRA-19" value="false" style="text;html=1;align=center;verticalAlign=middle;resizable=0;points=[];autosize=1;strokeColor=none;fillColor=none;" vertex="1" parent="1">
          <mxGeometry x="260" y="980" width="50" height="30" as="geometry" />
        </mxCell>
        <mxCell id="4Mo3WPmvzlWyDM1ACkRA-20" value="false" style="text;html=1;align=center;verticalAlign=middle;resizable=0;points=[];autosize=1;strokeColor=none;fillColor=none;" vertex="1" parent="1">
          <mxGeometry x="265" y="1208" width="50" height="30" as="geometry" />
        </mxCell>
        <mxCell id="4Mo3WPmvzlWyDM1ACkRA-22" value="true" style="text;html=1;align=center;verticalAlign=middle;resizable=0;points=[];autosize=1;strokeColor=none;fillColor=none;" vertex="1" parent="1">
          <mxGeometry x="400" y="1138" width="40" height="30" as="geometry" />
        </mxCell>
        <mxCell id="4Mo3WPmvzlWyDM1ACkRA-24" value="true" style="text;html=1;align=center;verticalAlign=middle;resizable=0;points=[];autosize=1;strokeColor=none;fillColor=none;" vertex="1" parent="1">
          <mxGeometry x="270" y="1368" width="40" height="30" as="geometry" />
        </mxCell>
        <mxCell id="4Mo3WPmvzlWyDM1ACkRA-26" value="false" style="text;html=1;align=center;verticalAlign=middle;resizable=0;points=[];autosize=1;strokeColor=none;fillColor=none;" vertex="1" parent="1">
          <mxGeometry x="385" y="1308" width="50" height="30" as="geometry" />
        </mxCell>
        <mxCell id="4Mo3WPmvzlWyDM1ACkRA-28" style="edgeStyle=orthogonalEdgeStyle;rounded=0;orthogonalLoop=1;jettySize=auto;html=1;" edge="1" parent="1" source="4Mo3WPmvzlWyDM1ACkRA-27">
          <mxGeometry relative="1" as="geometry">
            <mxPoint x="610" y="700" as="targetPoint" />
          </mxGeometry>
        </mxCell>
        <mxCell id="4Mo3WPmvzlWyDM1ACkRA-30" style="edgeStyle=orthogonalEdgeStyle;rounded=0;orthogonalLoop=1;jettySize=auto;html=1;exitX=0.5;exitY=1;exitDx=0;exitDy=0;" edge="1" parent="1" source="4Mo3WPmvzlWyDM1ACkRA-27">
          <mxGeometry relative="1" as="geometry">
            <mxPoint x="515" y="800" as="targetPoint" />
          </mxGeometry>
        </mxCell>
        <mxCell id="4Mo3WPmvzlWyDM1ACkRA-27" value="posti_L&lt;div&gt;&amp;gt;&lt;/div&gt;&lt;div&gt;0&lt;/div&gt;" style="rhombus;whiteSpace=wrap;html=1;" vertex="1" parent="1">
          <mxGeometry x="470" y="660" width="90" height="80" as="geometry" />
        </mxCell>
        <mxCell id="4Mo3WPmvzlWyDM1ACkRA-29" value="true" style="text;html=1;align=center;verticalAlign=middle;resizable=0;points=[];autosize=1;strokeColor=none;fillColor=none;" vertex="1" parent="1">
          <mxGeometry x="550" y="668" width="40" height="30" as="geometry" />
        </mxCell>
        <mxCell id="4Mo3WPmvzlWyDM1ACkRA-31" value="false" style="text;html=1;align=center;verticalAlign=middle;resizable=0;points=[];autosize=1;strokeColor=none;fillColor=none;" vertex="1" parent="1">
          <mxGeometry x="475" y="738" width="50" height="30" as="geometry" />
        </mxCell>
        <mxCell id="4Mo3WPmvzlWyDM1ACkRA-32" value="" style="endArrow=classic;html=1;rounded=0;" edge="1" parent="1">
          <mxGeometry width="50" height="50" relative="1" as="geometry">
            <mxPoint x="520" y="800" as="sourcePoint" />
            <mxPoint x="580" y="800" as="targetPoint" />
          </mxGeometry>
        </mxCell>
        <mxCell id="4Mo3WPmvzlWyDM1ACkRA-34" style="edgeStyle=orthogonalEdgeStyle;rounded=0;orthogonalLoop=1;jettySize=auto;html=1;" edge="1" parent="1" source="4Mo3WPmvzlWyDM1ACkRA-33">
          <mxGeometry relative="1" as="geometry">
            <mxPoint x="830" y="810" as="targetPoint" />
          </mxGeometry>
        </mxCell>
        <mxCell id="4Mo3WPmvzlWyDM1ACkRA-33" value="write&lt;div&gt;&quot;Tutto i posti sono prenotati&quot;&lt;/div&gt;" style="shape=parallelogram;perimeter=parallelogramPerimeter;whiteSpace=wrap;html=1;fixedSize=1;" vertex="1" parent="1">
          <mxGeometry x="570" y="778" width="120" height="60" as="geometry" />
        </mxCell>
        <mxCell id="4Mo3WPmvzlWyDM1ACkRA-56" style="edgeStyle=orthogonalEdgeStyle;rounded=0;orthogonalLoop=1;jettySize=auto;html=1;" edge="1" parent="1" source="4Mo3WPmvzlWyDM1ACkRA-35">
          <mxGeometry relative="1" as="geometry">
            <mxPoint x="830" y="700" as="targetPoint" />
          </mxGeometry>
        </mxCell>
        <mxCell id="4Mo3WPmvzlWyDM1ACkRA-35" value="posti_L=&lt;div&gt;posti_L - 1&lt;/div&gt;" style="rounded=0;whiteSpace=wrap;html=1;" vertex="1" parent="1">
          <mxGeometry x="610" y="670" width="120" height="60" as="geometry" />
        </mxCell>
        <mxCell id="4Mo3WPmvzlWyDM1ACkRA-38" style="edgeStyle=orthogonalEdgeStyle;rounded=0;orthogonalLoop=1;jettySize=auto;html=1;" edge="1" parent="1" source="4Mo3WPmvzlWyDM1ACkRA-37">
          <mxGeometry relative="1" as="geometry">
            <mxPoint x="620" y="940" as="targetPoint" />
          </mxGeometry>
        </mxCell>
        <mxCell id="4Mo3WPmvzlWyDM1ACkRA-42" style="edgeStyle=orthogonalEdgeStyle;rounded=0;orthogonalLoop=1;jettySize=auto;html=1;exitX=0.5;exitY=1;exitDx=0;exitDy=0;" edge="1" parent="1" source="4Mo3WPmvzlWyDM1ACkRA-37">
          <mxGeometry relative="1" as="geometry">
            <mxPoint x="515" y="1040" as="targetPoint" />
          </mxGeometry>
        </mxCell>
        <mxCell id="4Mo3WPmvzlWyDM1ACkRA-37" value="posti_L=&lt;div&gt;&amp;lt;&lt;/div&gt;&lt;div&gt;50&lt;/div&gt;" style="rhombus;whiteSpace=wrap;html=1;" vertex="1" parent="1">
          <mxGeometry x="470" y="900" width="90" height="80" as="geometry" />
        </mxCell>
        <mxCell id="4Mo3WPmvzlWyDM1ACkRA-39" value="true" style="text;html=1;align=center;verticalAlign=middle;resizable=0;points=[];autosize=1;strokeColor=none;fillColor=none;" vertex="1" parent="1">
          <mxGeometry x="560" y="908" width="40" height="30" as="geometry" />
        </mxCell>
        <mxCell id="4Mo3WPmvzlWyDM1ACkRA-55" style="edgeStyle=orthogonalEdgeStyle;rounded=0;orthogonalLoop=1;jettySize=auto;html=1;" edge="1" parent="1" source="4Mo3WPmvzlWyDM1ACkRA-40">
          <mxGeometry relative="1" as="geometry">
            <mxPoint x="830" y="940" as="targetPoint" />
          </mxGeometry>
        </mxCell>
        <mxCell id="4Mo3WPmvzlWyDM1ACkRA-40" value="posti_L =&lt;div&gt;posti_L + 1&lt;/div&gt;" style="rounded=0;whiteSpace=wrap;html=1;" vertex="1" parent="1">
          <mxGeometry x="620" y="910" width="120" height="60" as="geometry" />
        </mxCell>
        <mxCell id="4Mo3WPmvzlWyDM1ACkRA-44" value="false" style="text;html=1;align=center;verticalAlign=middle;whiteSpace=wrap;rounded=0;" vertex="1" parent="1">
          <mxGeometry x="465" y="980" width="60" height="30" as="geometry" />
        </mxCell>
        <mxCell id="4Mo3WPmvzlWyDM1ACkRA-45" value="" style="endArrow=classic;html=1;rounded=0;" edge="1" parent="1">
          <mxGeometry width="50" height="50" relative="1" as="geometry">
            <mxPoint x="520" y="1040" as="sourcePoint" />
            <mxPoint x="580" y="1040" as="targetPoint" />
          </mxGeometry>
        </mxCell>
        <mxCell id="4Mo3WPmvzlWyDM1ACkRA-47" style="edgeStyle=orthogonalEdgeStyle;rounded=0;orthogonalLoop=1;jettySize=auto;html=1;exitX=1;exitY=0.5;exitDx=0;exitDy=0;" edge="1" parent="1" source="4Mo3WPmvzlWyDM1ACkRA-46">
          <mxGeometry relative="1" as="geometry">
            <mxPoint x="830" y="1040" as="targetPoint" />
          </mxGeometry>
        </mxCell>
        <mxCell id="4Mo3WPmvzlWyDM1ACkRA-46" value="write&lt;div&gt;&quot;Tutti i posti sono liberi&quot;&lt;/div&gt;" style="shape=parallelogram;perimeter=parallelogramPerimeter;whiteSpace=wrap;html=1;fixedSize=1;" vertex="1" parent="1">
          <mxGeometry x="570" y="1010" width="120" height="60" as="geometry" />
        </mxCell>
        <mxCell id="4Mo3WPmvzlWyDM1ACkRA-51" style="edgeStyle=orthogonalEdgeStyle;rounded=0;orthogonalLoop=1;jettySize=auto;html=1;" edge="1" parent="1" source="4Mo3WPmvzlWyDM1ACkRA-48">
          <mxGeometry relative="1" as="geometry">
            <mxPoint x="580" y="1170" as="targetPoint" />
          </mxGeometry>
        </mxCell>
        <mxCell id="4Mo3WPmvzlWyDM1ACkRA-48" value="posti_L= posti_L" style="rounded=0;whiteSpace=wrap;html=1;" vertex="1" parent="1">
          <mxGeometry x="440" y="1155" width="105" height="30" as="geometry" />
        </mxCell>
        <mxCell id="4Mo3WPmvzlWyDM1ACkRA-53" style="edgeStyle=orthogonalEdgeStyle;rounded=0;orthogonalLoop=1;jettySize=auto;html=1;" edge="1" parent="1" source="4Mo3WPmvzlWyDM1ACkRA-52">
          <mxGeometry relative="1" as="geometry">
            <mxPoint x="700" y="1170" as="targetPoint" />
          </mxGeometry>
        </mxCell>
        <mxCell id="4Mo3WPmvzlWyDM1ACkRA-52" value="posti_O=&lt;div&gt;50-posti_L&lt;/div&gt;" style="rounded=0;whiteSpace=wrap;html=1;" vertex="1" parent="1">
          <mxGeometry x="580" y="1155" width="90" height="30" as="geometry" />
        </mxCell>
        <mxCell id="4Mo3WPmvzlWyDM1ACkRA-57" style="edgeStyle=orthogonalEdgeStyle;rounded=0;orthogonalLoop=1;jettySize=auto;html=1;exitX=1;exitY=0.5;exitDx=0;exitDy=0;" edge="1" parent="1" source="4Mo3WPmvzlWyDM1ACkRA-54">
          <mxGeometry relative="1" as="geometry">
            <mxPoint x="830" y="1170" as="targetPoint" />
          </mxGeometry>
        </mxCell>
        <mxCell id="4Mo3WPmvzlWyDM1ACkRA-54" value="write&amp;nbsp;&lt;div&gt;posti_L, posti_O&lt;/div&gt;" style="shape=parallelogram;perimeter=parallelogramPerimeter;whiteSpace=wrap;html=1;fixedSize=1;" vertex="1" parent="1">
          <mxGeometry x="690" y="1140" width="120" height="70" as="geometry" />
        </mxCell>
        <mxCell id="4Mo3WPmvzlWyDM1ACkRA-58" value="" style="endArrow=classic;html=1;rounded=0;" edge="1" parent="1">
          <mxGeometry width="50" height="50" relative="1" as="geometry">
            <mxPoint x="827" y="1320" as="sourcePoint" />
            <mxPoint x="830" y="1180" as="targetPoint" />
          </mxGeometry>
        </mxCell>
        <mxCell id="4Mo3WPmvzlWyDM1ACkRA-59" value="" style="endArrow=classic;html=1;rounded=0;" edge="1" parent="1">
          <mxGeometry width="50" height="50" relative="1" as="geometry">
            <mxPoint x="827" y="1168" as="sourcePoint" />
            <mxPoint x="827" y="1050" as="targetPoint" />
          </mxGeometry>
        </mxCell>
        <mxCell id="4Mo3WPmvzlWyDM1ACkRA-60" value="" style="endArrow=classic;html=1;rounded=0;" edge="1" parent="1">
          <mxGeometry width="50" height="50" relative="1" as="geometry">
            <mxPoint x="830" y="1030" as="sourcePoint" />
            <mxPoint x="830" y="940" as="targetPoint" />
          </mxGeometry>
        </mxCell>
        <mxCell id="4Mo3WPmvzlWyDM1ACkRA-61" value="" style="endArrow=classic;html=1;rounded=0;" edge="1" parent="1">
          <mxGeometry width="50" height="50" relative="1" as="geometry">
            <mxPoint x="830" y="938" as="sourcePoint" />
            <mxPoint x="830" y="820" as="targetPoint" />
          </mxGeometry>
        </mxCell>
        <mxCell id="4Mo3WPmvzlWyDM1ACkRA-62" value="" style="endArrow=classic;html=1;rounded=0;" edge="1" parent="1">
          <mxGeometry width="50" height="50" relative="1" as="geometry">
            <mxPoint x="830" y="800" as="sourcePoint" />
            <mxPoint x="830" y="710" as="targetPoint" />
          </mxGeometry>
        </mxCell>
        <mxCell id="4Mo3WPmvzlWyDM1ACkRA-63" value="" style="endArrow=classic;html=1;rounded=0;" edge="1" parent="1">
          <mxGeometry width="50" height="50" relative="1" as="geometry">
            <mxPoint x="827" y="690" as="sourcePoint" />
            <mxPoint x="827" y="580" as="targetPoint" />
          </mxGeometry>
        </mxCell>
        <mxCell id="4Mo3WPmvzlWyDM1ACkRA-64" value="" style="endArrow=classic;html=1;rounded=0;" edge="1" parent="1" target="4Mo3WPmvzlWyDM1ACkRA-5">
          <mxGeometry width="50" height="50" relative="1" as="geometry">
            <mxPoint x="830" y="580" as="sourcePoint" />
            <mxPoint x="880" y="530" as="targetPoint" />
          </mxGeometry>
        </mxCell>
        <mxCell id="4Mo3WPmvzlWyDM1ACkRA-65" value="end" style="ellipse;whiteSpace=wrap;html=1;" vertex="1" parent="1">
          <mxGeometry x="260" y="1440" width="120" height="80" as="geometry" />
        </mxCell>
      </root>
    </mxGraphModel>
  </diagram>
</mxfile>
